<?xml version="1.0" encoding="UTF-8"?>
<svg width="80px" height="81px" viewBox="0 0 80 81" version="1.1" xmlns="http://www.w3.org/2000/svg" xmlns:xlink="http://www.w3.org/1999/xlink">
    <title>FSRI_UL_FULL_COLOR_LOGO_rgbHEX</title>
    <g id="Navigation" stroke="none" stroke-width="1" fill="none" fill-rule="evenodd">
        <g id="Navigation---Light-1.1" transform="translate(-80.000000, -60.000000)" fill-rule="nonzero">
            <g id="FSRI_UL_FULL_COLOR_LOGO_rgbHEX" transform="translate(80.000000, 60.000000)">
                <g id="ROUNDEL">
                    <path d="M40.061442,79.9976409 C21.0075429,79.9987581 4.60620658,66.5401338 0.888031955,47.8525376 C-2.83014267,29.1649415 7.17043474,10.4532645 24.7736905,3.16104547 C42.3769463,-4.13117359 62.6800012,2.02710258 73.2660742,17.8696444 C83.8521472,33.7121862 81.772793,54.8265104 68.2996865,68.2996865 C60.8272415,75.8141819 50.6588112,80.0264948 40.061442,79.9976409 Z M40.061442,1.62758621 C21.7268258,1.62758621 5.9453359,14.5787896 2.36830385,32.5610863 C-1.2087282,50.543383 8.41495128,68.5483121 25.3538827,75.5647751 C42.2928142,82.5812382 61.8292671,76.6550516 72.0155239,61.4104354 C82.2017808,46.1658192 80.2008259,25.8486132 67.2363636,12.8840125 C60.0444731,5.65411789 50.2591801,1.60174594 40.061442,1.63009404 L40.061442,1.62758621 Z" id="Shape" fill="#000000"></path>
                    <path d="M68.1492163,40.6884013 C68.1211557,50.7242655 62.6716198,59.961424 53.9010406,64.8395692 C45.1304615,69.7177144 34.4083491,69.4751326 25.8673617,64.2053231 C17.3263743,58.9355135 12.3001715,49.4613473 12.7260188,39.4344828 C13.0708464,24.1216301 25.7667712,11.9962382 41.0645768,12.3498433 C56.3623824,12.7034483 68.5028213,25.3905956 68.1492163,40.6884013 Z" id="Path" fill="#000000"></path>
                    <path d="M40.9203762,2.40626959 C20.1241379,1.93103448 2.88025078,18.4062696 2.40626959,39.2025078 C2.17618465,49.1899232 5.92418379,58.859458 12.825297,66.0827565 C19.7264103,73.3060549 29.2149891,77.4910607 39.2025078,77.7166144 C52.3811912,78.0175549 64.1316614,71.5122257 71.0934169,61.415674 C75.2589948,55.3791351 77.5618434,48.2530351 77.7166144,40.9203762 C78.1918495,20.1241379 61.7166144,2.88025078 40.9203762,2.40626959 Z M65.8382445,40.6507837 C65.6281411,49.8599483 60.5209667,58.2574786 52.4405444,62.6801059 C44.3601221,67.1027333 34.5340604,66.8785555 26.6637417,62.0920182 C18.7934229,57.3054808 14.0745358,48.6837728 14.2846395,39.4746082 C14.6068966,25.2376176 26.4137931,13.9598746 40.6495298,14.2846395 C54.8852665,14.6094044 66.1630094,26.4137931 65.8382445,40.6495298 L65.8382445,40.6507837 Z" id="Shape" fill="#C02032"></path>
                    <path d="M40.0727273,78.4789969 C39.7784744,78.4789969 39.4825496,78.4756531 39.184953,78.4689655 C18.056209,77.9860402 1.28386443,60.530275 1.64472812,39.3990938 C2.00559181,18.2679127 19.3641776,1.39501192 40.4970907,1.6338019 C61.6300039,1.87259187 78.6028978,19.133419 78.4867878,40.2673589 C78.3694812,61.4012989 61.2069888,78.4736196 40.0727273,78.4789969 L40.0727273,78.4789969 Z M40.0388715,3.14858934 C26.3323813,3.15832864 13.7595764,10.7612074 7.38455494,22.8949236 C1.00953352,35.0286399 1.88185218,49.6955499 9.65015674,60.9880878 C16.3646749,70.7581849 27.3680015,76.7031167 39.2200627,76.9642633 C39.5034483,76.9717868 39.7893417,76.9742947 40.0727273,76.9742947 C60.2855674,76.9579259 76.7260642,60.6881001 76.9533533,40.4765313 C77.1806425,20.2649625 61.1101817,3.62953478 40.9028213,3.15862069 C40.6144201,3.15109718 40.3260188,3.14858934 40.0388715,3.14858934 Z M40.0689655,66.5968652 C39.8658307,66.5968652 39.661442,66.5968652 39.4557994,66.5968652 C24.8046827,66.2620351 13.1989702,54.1136488 13.5335637,39.4625267 C13.8681573,24.8114046 26.0163562,13.2054959 40.6674837,13.5398529 C55.3186112,13.8742099 66.924716,26.0222213 66.5905956,40.6733542 L66.5905956,40.6733542 C66.2615012,55.085024 54.4843923,66.5968652 40.0689655,66.5968652 Z M40.0539185,15.030721 C26.5115987,15.030721 15.3517241,25.8846395 15.0369906,39.4909091 C14.9044145,44.7533328 16.445963,49.9219769 19.4394984,54.2520376 C23.9919466,60.8779671 31.4537055,64.9095847 39.4909091,65.0858934 C48.4312845,65.2897252 56.801275,60.70844 61.4479862,53.0677637 C66.0946974,45.4270874 66.3121833,35.8878204 62.0185191,28.0433123 C57.7248549,20.1988042 49.5723503,15.2408224 40.6319749,15.0369906 C40.4376176,15.0332288 40.245768,15.030721 40.0539185,15.030721 Z" id="Shape" fill="#FFFFFF"></path>
                </g>
                <g id="FSRI_TYPE" transform="translate(5.893417, 5.768025)" fill="#FFFFFF">
                    <path d="M67.2551724,35.1210031 L62.7410658,35.1097179 L62.7410658,33.9260188 L67.2551724,33.938558 L67.2551724,32.9793103 L68.2808777,32.9793103 L68.2746082,36.09279 L67.2489028,36.09279 L67.2551724,35.1210031 Z M62.4752351,30.4714734 L67.9761755,29.8094044 L68.1153605,30.984326 L62.6131661,31.6451411 L62.4752351,30.4714734 Z M62.2783699,39.0583072 C62.5291536,37.553605 63.4068966,37.3667712 64.5128527,37.553605 L68.1329154,38.1504702 L67.9448276,39.3103448 L64.4050157,38.7260188 C63.7003135,38.6094044 63.3291536,38.7410658 63.2489028,39.2388715 C63.168652,39.7366771 63.4683386,39.9912226 64.1266458,40.0978056 L67.7203762,40.6884013 L67.5310345,41.8557994 L64.031348,41.2789969 C62.7924765,41.0733542 62.0664577,40.3661442 62.2783699,39.0583072 Z M66.4576803,27.1460815 L62.0689655,28.2282132 L61.7905956,27.0783699 L66.1793103,25.9974922 L65.953605,25.0645768 L66.9504702,24.8200627 L67.6827586,27.8407524 L66.6858934,28.0915361 L66.4576803,27.1460815 Z M65.3905956,45.5084639 L61.1021944,44.0840125 L61.4708464,42.9554859 L65.7667712,44.384953 L66.0652038,43.4733542 L67.0407524,43.7981191 L66.0727273,46.7523511 L65.0984326,46.4275862 L65.3905956,45.5084639 Z M4.31097179,48.8075235 L5.48087774,48.2432602 L4.96426332,47.1548589 L5.84200627,46.7297806 L6.35862069,47.8194357 L8.38746082,46.8413793 L8.88902821,47.9084639 L3.8984326,50.3172414 L2.84012539,48.0865204 L3.75799373,47.6451411 L4.31097179,48.8075235 Z M7.34043887,44.3360502 L2.09780564,46.1467085 L1.72163009,45.0269592 L6.95799373,43.2163009 L7.34043887,44.3360502 Z M1.69780564,41.168652 C1.71212754,41.2477148 1.73054312,41.325981 1.75297806,41.4031348 L3.18495298,41.1134796 C3.18188468,41.0444549 3.17392321,40.9757349 3.16112853,40.907837 C3.08338558,40.5191223 2.79122257,40.3498433 2.29968652,40.4489028 C1.84075235,40.5416928 1.61630094,40.7548589 1.69780564,41.168652 Z M6.06018809,39.5724138 L4.0539185,40.8200627 L4.07648903,40.9329154 L6.24075235,40.4965517 L6.47147335,41.6564263 L1.03824451,42.7523511 C0.934169279,42.3523511 0.82507837,41.8420063 0.723510972,41.3316614 C0.501567398,40.2119122 0.842633229,39.4858934 2.00125392,39.2514107 C2.71724138,39.10721 3.31034483,39.3504702 3.60626959,39.7880878 C3.78808777,39.6501567 3.98244514,39.5097179 4.17053292,39.3880878 L5.80062696,38.2746082 L6.06018809,39.5724138 Z M5.70407524,37.0583072 L0.169278997,37.3191223 L0.0501567398,34.7949843 L1.06708464,34.7473354 L1.12978056,36.0940439 L2.3523511,36.0363636 L2.29341693,34.7824451 L3.27021944,34.7373041 L3.32789969,35.9912226 L4.62319749,35.9297806 L4.56050157,34.5742947 L5.5862069,34.5253918 L5.70407524,37.0583072 Z M6.09780564,29.7115987 C6.03529777,30.0762938 5.91553349,30.4288155 5.74294671,30.7561129 L4.70094044,30.3398119 C4.87190654,30.1179177 4.99179035,29.8610238 5.05203762,29.5874608 C5.12978056,29.1561129 4.95673981,28.9605016 4.60940439,28.8940439 C3.70532915,28.7285266 3.53605016,30.4125392 1.8507837,30.1053292 C0.945454545,29.9398119 0.389968652,29.1749216 0.586833856,28.0840125 C0.639256315,27.7697741 0.735932671,27.464547 0.873981191,27.1774295 L1.83824451,27.5724138 C1.70158953,27.7630995 1.60829169,27.9813651 1.56489028,28.2119122 C1.49467085,28.6018809 1.7153605,28.8112853 1.98996865,28.861442 C2.8677116,29.0194357 3.10721003,27.3329154 4.74858934,27.6326019 C5.76175549,27.8169279 6.29592476,28.6043887 6.09655172,29.7115987 L6.09780564,29.7115987 Z M3.93103448,23.7003135 C3.53486639,23.6498364 3.14147813,23.5795287 2.7523511,23.4896552 L2.7523511,23.5059561 C3.05203762,23.6451411 3.42068966,23.8357367 3.81065831,24.0677116 L5.11222571,24.8890282 L5.45956113,23.8858934 L3.93103448,23.7003135 Z M7.50219436,24.1529781 L6.45266458,24.0275862 L5.9799373,25.3905956 L6.88275862,25.9510972 L6.51285266,27.0206897 L1.69153605,24.0025078 L2.25956113,22.353605 L7.91724138,22.9567398 L7.50219436,24.1529781 Z M4.97931034,18.7912226 L6.12539185,19.4043887 L6.68714734,18.338558 L7.54984326,18.8 L6.98683386,19.8733542 L8.97178683,20.9366771 L8.42131661,21.9811912 L3.53103448,19.3605016 L4.68338558,17.1761755 L5.58244514,17.6589342 L4.97931034,18.7912226 Z M10.3009404,18.6269592 L5.80815047,15.3592476 L7.27774295,13.3065831 L8.10282132,13.90721 L7.32037618,15.000627 L8.31222571,15.7216301 L9.04200627,14.7021944 L9.83322884,15.2777429 L9.10344828,16.2971787 L10.1554859,17.062069 L10.9429467,15.9623824 L11.7742947,16.5667712 L10.3009404,18.6269592 Z M10.7322884,10.9554859 L13.9924765,14.1115987 L13.1774295,14.9642633 L9.91724138,11.8094044 L9.25642633,12.5003135 L8.51786834,11.7830721 L10.6583072,9.54106583 L11.3968652,10.2583072 L10.7322884,10.9554859 Z M16.2369906,9.71661442 L17.3655172,11.2112853 L16.4376176,11.9222571 L15.3090909,10.4351097 L11.9598746,8.33479624 L12.9793103,7.55360502 L14.2846395,8.47648903 C14.5090909,8.6369906 14.8163009,8.87899687 15.0470219,9.07711599 L15.0532915,9.07711599 C14.9216301,8.79247649 14.7899687,8.4677116 14.7134796,8.25705329 L14.1366771,6.67210031 L15.1034483,5.93103448 L16.2369906,9.71661442 Z M21.0144201,3.82319749 C20.9411594,3.85314374 20.8695805,3.88704955 20.8,3.92476489 L21.3742947,5.27899687 C21.4411138,5.26191905 21.5065125,5.23970027 21.569906,5.21253918 C21.9322884,5.05579937 22.0351097,4.7322884 21.8382445,4.26833856 C21.6476489,3.82319749 21.3931034,3.6476489 21.0081505,3.81442006 L21.0144201,3.82319749 Z M23.4633229,7.79561129 L21.8332288,6.0677116 L21.7278997,6.11410658 L22.5968652,8.15924765 L21.5184953,8.62570533 L19.3354232,3.49216301 C19.7040752,3.30658307 20.1755486,3.09341693 20.6507837,2.88902821 C21.6915361,2.43887147 22.4677116,2.62570533 22.9341693,3.72037618 C23.2213166,4.39749216 23.10721,5.03197492 22.7423197,5.41442006 C22.9141066,5.56489028 23.092163,5.73166144 23.2438871,5.88840125 L24.660815,7.2677116 L23.4633229,7.79561129 Z M25.8319749,6.92539185 L24.4351097,1.52225705 L26.8652038,0.884012539 L27.1222571,1.87586207 L25.8282132,2.2169279 L26.1354232,3.40940439 L27.3429467,3.09216301 L27.5937304,4.04388715 L26.3862069,4.36112853 L26.7122257,5.62633229 L28.015047,5.28401254 L28.2746082,6.28714734 L25.8319749,6.92539185 Z M30.6282132,5.99623824 C30.2630187,6.04056882 29.8931003,6.02660164 29.5322884,5.95485893 L29.6288401,4.82633229 C29.8875665,4.92914557 30.1662215,4.97201557 30.4438871,4.95172414 C30.876489,4.9015674 31.0169279,4.67711599 30.9768025,4.32476489 C30.8727273,3.40438871 29.2213166,3.72664577 29.030721,2.00877743 C28.9266458,1.08840125 29.4934169,0.332288401 30.5868339,0.206896552 C30.9007338,0.167265896 31.2186896,0.172755172 31.5310345,0.223197492 L31.4332288,1.26645768 C31.2130445,1.19064059 30.9789904,1.16368371 30.7473354,1.18746082 C30.3548589,1.23260188 30.2206897,1.50595611 30.2520376,1.78557994 C30.3523511,2.67335423 32.0263323,2.42257053 32.215674,4.10031348 C32.3247649,5.11724138 31.7304075,5.85956113 30.6219436,5.98746082 L30.6282132,5.99623824 Z M33.7630094,5.66896552 L33.9172414,0.0777429467 L36.4250784,0.150470219 L36.3962382,1.17617555 L35.0583072,1.13730408 L35.0231975,2.36990596 L36.2708464,2.40626959 L36.2420063,3.38934169 L34.9956113,3.35423197 L34.9579937,4.66081505 L36.2996865,4.70094044 L36.2708464,5.73416928 L33.7630094,5.66896552 Z M40.1366771,2.70971787 C40.1291536,2.25329154 40.1366771,1.83197492 40.1667712,1.50344828 L40.1504702,1.50344828 C40.0576803,1.82319749 39.9272727,2.21943574 39.7579937,2.64200627 L39.153605,4.07021944 L40.1956113,4.26332288 L40.1366771,2.70971787 Z M40.2244514,6.33103448 L40.1943574,5.26520376 L38.7824451,5.00188088 L38.368652,5.98495298 L37.2626959,5.78056426 L39.4959248,0.514106583 L41.1987461,0.830094044 L41.4595611,6.55799373 L40.2244514,6.33103448 Z M45.3655172,3.02445141 C45.2913315,2.99549806 45.2155555,2.97079758 45.138558,2.95047022 L44.6369906,4.32978056 C44.6971378,4.36265712 44.7595777,4.39115319 44.8238245,4.41504702 C45.2,4.55047022 45.4896552,4.3862069 45.6601881,3.91347962 C45.8294671,3.46959248 45.7617555,3.16363636 45.369279,3.02068966 L45.3655172,3.02445141 Z M44.4564263,7.61128527 L44.4376176,5.23761755 L44.3297806,5.19749216 L43.5774295,7.29028213 L42.4739812,6.88652038 L44.3636364,1.63761755 C44.7573668,1.75423197 45.2413793,1.92476489 45.7329154,2.10282132 C46.7974922,2.49153605 47.2376176,3.16238245 46.8351097,4.28213166 C46.584326,4.97429467 46.0714734,5.35799373 45.5460815,5.38683386 C45.568652,5.61504702 45.5862069,5.85830721 45.5937304,6.0815047 L45.69279,8.06269592 L44.4564263,7.61128527 Z M48.2833856,9.52852665 C46.9579937,8.79874608 47.0194357,7.61630094 47.8231975,6.1354232 C48.6733542,4.56802508 49.8557994,3.85329154 51.1021944,4.53918495 C51.3978559,4.70307847 51.6602564,4.92082407 51.8758621,5.18119122 L51.1485893,5.98746082 C51.026269,5.80787803 50.8629317,5.66001477 50.6721003,5.55611285 C50.1028213,5.24263323 49.5435737,5.66269592 49.0081505,6.65705329 C48.4413793,7.70282132 48.415047,8.33855799 48.9617555,8.63949843 C49.1753981,8.75634678 49.4142078,8.81959908 49.6576803,8.82382445 L49.3968652,9.83949843 C49.0070295,9.82536735 48.6263558,9.71740226 48.2871473,9.52476489 L48.2833856,9.52852665 Z M52.368652,12.2670846 L53.7830721,10.4514107 L52.6545455,9.55736677 L51.2401254,11.3730408 L50.3159875,10.6420063 L53.739185,6.25329154 L54.662069,6.98432602 L53.2978056,8.73981191 L54.4263323,9.6338558 L55.7905956,7.87836991 L56.70721,8.60438871 L53.2852665,12.9931034 L52.368652,12.2670846 Z M55.9862069,15.8758621 L60.292163,12.3648903 L61.030721,13.2840125 L56.7247649,16.7949843 L55.9862069,15.8758621 Z M58.9504702,20.139185 L60.7962382,17.8319749 C61.1150086,17.4261057 61.464187,17.0450694 61.8407524,16.692163 L61.8282132,16.6708464 C61.399373,16.9956113 60.5981191,17.5485893 59.7304075,18.0689655 L58.2507837,18.9605016 L57.7166144,18.0589342 L62.4727273,15.1924765 L63.2727273,16.5416928 L61.7141066,18.5065831 C61.4007343,18.914702 61.0547722,19.2967281 60.6796238,19.6489028 L60.692163,19.6702194 C61.1210031,19.3454545 61.9222571,18.7924765 62.7824451,18.277116 L63.9034483,17.6012539 L64.4376176,18.5028213 L59.6815047,21.369279 L58.9504702,20.139185 Z M60.5567398,23.6351097 C60.4174553,23.2917921 60.3328342,22.9287673 60.3059561,22.5592476 L61.4106583,22.3598746 C61.3809415,22.6384701 61.4130525,22.920191 61.5047022,23.184953 C61.6652038,23.5924765 61.9159875,23.6714734 62.2445141,23.5410658 C63.0996865,23.2 62.3623824,21.6789969 63.9586207,21.0432602 C64.8137931,20.7034483 65.6852665,21.0595611 66.0902821,22.0902821 C66.2099226,22.3855455 66.2871775,22.6962539 66.3197492,23.0131661 L65.2940439,23.1899687 C65.310131,22.9558659 65.2754859,22.7210494 65.1924765,22.5015674 C65.0482759,22.1316614 64.7510972,22.0727273 64.4915361,22.1755486 C63.6664577,22.5040752 64.3410658,24.0677116 62.7824451,24.6833856 C61.8319749,25.0721003 60.9667712,24.6871473 60.5567398,23.6351097 Z M60.3059561,46.1592476 L65.2714734,48.6369906 L64.1567398,50.9053292 L63.2451411,50.4501567 L63.8382445,49.2413793 L62.7423197,48.6946708 L62.1880878,49.8231975 L61.3103448,49.3868339 L61.8645768,48.2583072 L60.7021944,47.6777429 L60.1053292,48.8940439 L59.184953,48.4351097 L60.3059561,46.1592476 Z" id="Shape"></path>
                </g>
                <g id="TORCH___HOSE" transform="translate(25.579937, 18.557994)">
                    <path d="M7.99122257,26.5316614 C7.99122257,26.5316614 22.7874608,29.8282132 26.0476489,31.2840125 L26.2131661,34.3272727 C26.2131661,34.3272727 27.2426332,36.353605 23.0871473,34.8288401 C16.1905956,32.2971787 7.32664577,30.49279 4.25579937,29.9799373 L7.99122257,26.5316614 Z" id="Path" fill="#FFFFFF"></path>
                    <path d="M25.4570533,35.4896552 C24.8952978,35.4896552 24.0915361,35.2978056 23.0520376,34.9166144 C16.0827586,32.3573668 7.10721003,30.5517241 4.24326019,30.0727273 L4.0539185,30.0413793 L7.96112853,26.4288401 L8.01003135,26.4401254 C8.15799373,26.4727273 22.8564263,29.7554859 26.0815047,31.2050157 L26.1341693,31.2275862 L26.3021944,34.3097179 C26.3498433,34.4125392 26.5529781,34.9040752 26.2633229,35.231348 C26.1090909,35.400627 25.8382445,35.4896552 25.4570533,35.4896552 Z M4.45768025,29.9197492 C7.51974922,30.4438871 16.2808777,32.2294671 23.1172414,34.7398119 C25.2990596,35.5410658 25.938558,35.3103448 26.1266458,35.1009404 C26.3611285,34.8376176 26.1266458,34.3736677 26.1266458,34.369906 L26.1166144,34.3523511 L25.953605,31.3429467 C22.7373041,29.9373041 8.94545455,26.8388715 8.02257053,26.630721 L4.45768025,29.9197492 Z" id="Shape" fill="#000000"></path>
                    <path d="M31.1410658,4.8677116 C31.0871473,4.81755486 29.7053292,4.53291536 28.507837,5.17115987 C27.5611285,5.67272727 27.1448276,6.72225705 27.2451411,7.18996865 C27.3454545,7.65768025 28.9793103,8.0677116 29.5799373,9.3354232 C30.1479624,10.5341693 29.7053292,12.4902821 29.7053292,12.4902821 C29.0783699,10.723511 26.677116,9.65015674 25.2890282,9.3354232 C23.9009404,9.02068966 22.154232,9.2539185 22.3573668,10.4752351 L21.769279,10.430094 C17.2401254,11.6576803 7.90971787,10.6658307 7.39561129,10.7862069 C5.02695925,7.14984326 8.25579937,-2.01128527 18.3423197,1.13103448 C23.5912226,2.76112853 24.6758621,0.161755486 24.6758621,0.161755486 C26.0326019,3.47460815 22.1605016,4.72351097 22.1605016,4.72351097 C22.1605016,4.72351097 23.8219436,5.02695925 26.2984326,3.78056426 C28.7749216,2.53416928 31.0595611,4.75862069 31.1410658,4.8677116 Z" id="Path" fill="#C02032"></path>
                    <path d="M29.7090909,12.615674 C29.6559727,12.6154624 29.6087513,12.5818045 29.5912226,12.5316614 C28.9943574,10.861442 26.677116,9.77304075 25.2639498,9.45705329 C24.1931034,9.2137931 23.1398119,9.33166144 22.7021944,9.74545455 C22.5078641,9.92551026 22.4246451,10.1957329 22.4840125,10.4539185 C22.4933271,10.5079921 22.4664025,10.5618414 22.4175549,10.5868339 C22.3862069,10.6018809 22.3862069,10.6018809 22.0576803,10.5768025 L21.7855799,10.5567398 C18.3222571,11.4871473 12.0978056,11.138558 9.10344828,10.9717868 C8.26081505,10.9241379 7.53354232,10.8827586 7.42821317,10.907837 C7.37658704,10.9200571 7.32285736,10.8984648 7.29404389,10.8539185 C6.02884013,8.91159875 6.38871473,5.60501567 8.11159875,3.33040752 C9.08762682,2.04060336 10.4625925,1.10955895 12.0225705,0.682131661 C13.8733542,0.164263323 16.0125392,0.275862069 18.3824451,1.01567398 C21.0407524,1.84326019 22.5818182,1.55109718 23.4068966,1.15987461 C24.2909091,0.741065831 24.5617555,0.122884013 24.5642633,0.11661442 C24.583887,0.0702815112 24.6293066,0.0401253918 24.6796238,0.0401253918 L24.6796238,0.0401253918 C24.7302448,0.0403780746 24.7757488,0.0710438236 24.7949843,0.117868339 C25.1786834,1.05579937 25.1912226,1.92476489 24.831348,2.69968652 C24.353605,3.72789969 23.3454545,4.33855799 22.7247649,4.63322884 C23.3968652,4.62319749 24.6520376,4.47398119 26.2445141,3.67272727 C28.662069,2.45642633 30.9931034,4.46645768 31.2401254,4.80125392 C31.2767035,4.84954449 31.2735269,4.91708051 31.2325776,4.96172454 C31.1916282,5.00636857 31.1246171,5.01535295 31.0733542,4.9830721 C30.2268695,4.7957715 29.3417623,4.90419713 28.5655172,5.29028213 C27.6351097,5.78557994 27.2865204,6.79498433 27.3667712,7.17115987 C27.3956113,7.30658307 27.6940439,7.49090909 28.0087774,7.68652038 C28.5605016,8.02884013 29.3166144,8.49655172 29.69279,9.28902821 C30.2721003,10.5128527 29.845768,12.4438871 29.8269592,12.5253918 C29.8143593,12.5792063 29.7680104,12.6184247 29.7128527,12.6219436 L29.7090909,12.615674 Z M24.1705329,9.08213166 C24.5572271,9.08210741 24.9427764,9.12415205 25.3203762,9.20752351 C26.4940439,9.47460815 28.7949843,10.3974922 29.6576803,12.0564263 C29.7504702,11.4294671 29.860815,10.2081505 29.4695925,9.38432602 C29.1260188,8.65830721 28.4062696,8.21191223 27.8796238,7.88714734 C27.4721003,7.63636364 27.1774295,7.4507837 27.1272727,7.21128527 C27.0131661,6.68087774 27.4733542,5.58119122 28.4526646,5.05454545 C29.2576803,4.62570533 30.1680251,4.59561129 30.7222571,4.65454545 C30.0175549,4.08526646 28.2470219,2.93918495 26.3598746,3.88965517 C23.8733542,5.14357367 22.2131661,4.85642633 22.1429467,4.84388715 C22.0858402,4.83411141 22.0428665,4.78648442 22.0389928,4.72867687 C22.0351191,4.67086932 22.0713541,4.61793453 22.1266458,4.60062696 C22.1454545,4.60062696 23.9523511,3.99623824 24.6068966,2.58557994 C24.9040752,1.94482759 24.9203762,1.22758621 24.6570533,0.453918495 C24.2282132,1.08087774 22.6871473,2.61316614 18.3097179,1.2476489 C12.4589342,-0.575548589 9.5322884,1.86081505 8.31347962,3.47460815 C6.66833856,5.64890282 6.30721003,8.78119122 7.4645768,10.6495298 C7.6815047,10.6382445 8.18181818,10.6645768 9.11974922,10.7172414 C12.1040752,10.8840125 18.3134796,11.231348 21.7354232,10.30721 L21.7354232,10.30721 C21.8477368,10.3058554 21.9600124,10.3121395 22.0714734,10.3260188 L22.215674,10.3373041 C22.1964195,10.045704 22.3097556,9.76098145 22.5241379,9.56238245 C22.8940439,9.21504702 23.5172414,9.08213166 24.1705329,9.08213166 L24.1705329,9.08213166 Z" id="Shape" fill="#FFFFFF"></path>
                    <path d="M29.1824451,4.38996837 C29.1824451,4.38996837 27.6852665,4.6507837 27.0858934,5.88213166 C26.3774295,7.33667712 25.2727273,7.52225705 25.2727273,7.52225705 C25.2727273,7.52225705 26.0250784,7.19373041 26.6758621,5.70783699 C27.2601881,4.38369906 29.1824451,4.38996837 29.1824451,4.38996837 Z" id="Path" fill="#FFFFFF"></path>
                    <path d="M22.7373041,2.69467085 C22.7373041,2.69467085 21.2225705,4.19937304 16.5467085,3.92978056 C11.6564263,3.6539185 12.738558,8.8200627 13.5561129,9.68777429 C12.2520376,9.79310345 10.4714734,9.90721003 9.38808777,10.1053292 C7.47460815,3.39561129 12.8777429,0.812539185 17.1799373,2.21316614 C21.0332288,3.46708464 22.7373041,2.69467085 22.7373041,2.69467085 Z" id="Path" fill="#FFFFFF"></path>
                    <path d="M25.7028213,5.2338558 C25.7028213,5.2338558 24.3460815,7.47335423 22.169279,7.80438871 C19.9924765,8.1354232 20.3047022,9.65893417 20.1479624,10.2971787 C18.7887147,10.1404389 18.5617555,9.95862069 16.9717868,9.9799373 C16.4990596,9.9799373 14.7335423,9.60376176 14.2796238,9.63009404 C14.6557994,8.49153605 15.2601881,5.48589342 19.5661442,6.1015674 C23.8721003,6.71724138 25.7028213,5.2338558 25.7028213,5.2338558 Z" id="Path" fill="#FFFFFF"></path>
                    <path d="M26.1592476,7.85203762 C26.1592476,7.85203762 29.5147335,8.00125392 29.4357367,11.0796238 C29.2925671,10.1475664 28.7595541,9.32046149 27.969906,8.80501567 C26.6871473,7.96112853 26.1592476,7.85203762 26.1592476,7.85203762 Z" id="Path" fill="#FFFFFF"></path>
                    <path d="M22.4589342,38.5655172 C22.4589342,38.5655172 12.3021944,33.9799373 5.28025078,34.0514107 C5.28025078,34.0514107 3.2539185,33.7855799 3.92476489,37.0971787 L5.47210031,38.1442006 C5.47210031,38.1442006 13.0420063,38.9730408 20.922884,41.9410662 C20.922884,41.9423197 21.9448276,38.8 22.4589342,38.5655172 Z" id="Path" fill="#FFFFFF"></path>
                    <path d="M20.9818182,42.0677116 L20.8902821,42.0338558 C13.1159875,39.1047022 5.53730408,38.2520376 5.46708464,38.2432602 L5.44451411,38.2432602 L3.84451411,37.1611285 L3.8369906,37.123511 C3.57492163,35.8257053 3.68652038,34.9040752 4.169279,34.3862069 C4.45931061,34.082417 4.87195718,33.9273283 5.29028213,33.9648903 L5.45329154,33.9648903 C12.4125392,33.9648903 22.4025078,38.4388715 22.5065831,38.4789969 L22.6959248,38.5642633 L22.5065831,38.6495298 C22.1592476,38.8075235 21.4106583,40.7711599 21.0206897,41.9724138 L20.9818182,42.0677116 Z M5.50595611,38.0551724 C5.97617555,38.1090909 13.3103448,38.9893417 20.8639498,41.8169279 C21.0420063,41.276489 21.7730408,39.1297806 22.2808777,38.584326 C21.0470219,38.0551724 11.9197492,34.1479624 5.45329154,34.1479624 L5.27147335,34.1479624 C4.91112578,34.1207327 4.55719326,34.2543182 4.30470219,34.5128527 C3.87711599,34.9730408 3.77680251,35.8482759 4.01253918,37.0445141 L5.50595611,38.0551724 Z" id="Shape" fill="#000000"></path>
                    <path d="M4.57554859,22.0601881 C4.6509934,21.8562786 4.54803683,21.6296622 4.34482759,21.5523511 L1.62382445,20.6031348 C1.56513064,20.5844013 1.50136908,20.5900574 1.44688942,20.6188302 C1.39240976,20.647603 1.35178913,20.6970752 1.33416928,20.7561129 L1.20877743,21.1222571 C1.16550202,21.2406398 1.22524126,21.3718428 1.34294671,21.4169279 L3.86332288,22.2871473 C4.22445141,22.3761755 4.49028213,22.3172414 4.56050157,22.1015674 L4.57554859,22.0601881 Z" id="Path" fill="#000000"></path>
                    <path d="M4.16050157,22.4952103 C4.05296208,22.4933181 3.94603089,22.4780182 3.84200627,22.4496394 L1.3153605,21.5421286 C1.14951236,21.4769234 1.06427559,21.2860263 1.12351097,21.1124606 L1.24890282,20.7322696 C1.27697182,20.643097 1.3384386,20.5694168 1.41943574,20.5278518 C1.49421055,20.4900085 1.58046976,20.4848501 1.65893417,20.5135295 L4.3799373,21.4978598 C4.63127972,21.5965316 4.75973358,21.8864923 4.66833856,22.1488719 L4.65454545,22.1918387 C4.58683386,22.3910484 4.4137931,22.4952103 4.16050157,22.4952103 Z M1.55360502,20.6931962 C1.53407638,20.6929267 1.51475427,20.6973853 1.49717868,20.7062291 C1.46197459,20.7253765 1.43541082,20.758102 1.42319749,20.7973708 L1.29780564,21.1775618 C1.27191285,21.2497957 1.30571605,21.3303531 1.37429467,21.3598452 L3.89341693,22.26345 C4.03636364,22.2986046 4.39498433,22.3637058 4.47147335,22.1332476 L4.48526646,22.0902808 C4.54353405,21.9292565 4.46723001,21.7493954 4.31347962,21.6853513 L1.59122257,20.701021 C1.57924965,20.6960478 1.56649903,20.6933999 1.55360502,20.6931962 L1.55360502,20.6931962 Z" id="Shape" fill="#FFFFFF"></path>
                    <path d="M6.11034483,17.3429467 C6.18181818,17.1310345 5.92978056,16.8664577 5.60877743,16.7611285 L3.28025078,15.9285266 C3.22237956,15.9115328 3.16011411,15.9184086 3.10734516,15.94762 C3.0545762,15.9768314 3.01569411,16.025948 2.99937304,16.0840125 L2.87398119,16.4501567 C2.82918936,16.5654423 2.88495075,16.6953664 2.99937304,16.7423197 L5.60626959,17.6514107 C5.70620787,17.6804222 5.81358659,17.6684217 5.90465466,17.6180636 C5.99572273,17.5677056 6.06297504,17.4831401 6.09153605,17.3830721 L6.11034483,17.3429467 Z" id="Path" fill="#000000"></path>
                    <path d="M5.72413793,17.8241728 C5.67472312,17.8249889 5.62553457,17.8171205 5.57868339,17.8009053 L2.97178683,16.8624484 C2.80990614,16.7958099 2.72919551,16.6081727 2.78996865,16.439755 L2.9153605,16.0623041 C2.94389138,15.9730051 3.00569293,15.8990643 3.08714734,15.8567742 C3.15840292,15.819633 3.24126416,15.8140317 3.31661442,15.8412626 L5.64514107,16.6995757 C5.86622101,16.7682187 6.0541984,16.9200148 6.17178683,17.1248544 C6.21953604,17.2160075 6.22992122,17.3230663 6.20062696,17.4221617 L6.18683386,17.4635262 C6.1435579,17.6000397 6.04922506,17.7131055 5.92476489,17.7776377 C5.86220843,17.8087236 5.79358151,17.8246415 5.72413793,17.8241728 Z M3.21630094,16.0144764 C3.19883697,16.014726 3.18166754,16.0191509 3.1661442,16.0274028 C3.12957006,16.0465936 3.10200942,16.0801287 3.08965517,16.1204729 L2.96426332,16.4979238 C2.93660689,16.566139 2.96588036,16.6447143 3.030721,16.6763082 L5.63761755,17.6134724 C5.7027416,17.6370395 5.77440874,17.631896 5.83573668,17.5992534 C5.9146313,17.5575542 5.97451053,17.4856152 6.00250784,17.3988941 L6.01504702,17.356237 C6.02942492,17.3061712 6.02259255,17.2521722 5.99623824,17.2075834 C5.8995186,17.0497437 5.75081548,16.933166 5.57742947,16.8792527 L3.2476489,16.0209396 C3.23833881,16.0178749 3.22856994,16.0165613 3.21880878,16.0170616 L3.21630094,16.0144764 Z" id="Shape" fill="#FFFFFF"></path>
                    <path d="M5.12727273,21.6940439 C5.12727273,21.6940439 11.9523511,23.6576803 15.1586207,24.6959248 C18.1442006,25.6601881 16.323511,25.5247649 18.1329154,26.030094 C20.4677116,26.6821317 26.7009404,28.2043887 28.4388715,28.615674 L28.9404389,27.6426332 L28.8012539,25.2789969 C28.8012539,25.2789969 30.5981191,25.3316614 19.6137931,21.7354232 C16.7297806,20.7924765 10.7786834,19.4194357 6.2846395,17.9410658 L5.12727273,21.6940439 Z" id="Path" fill="#FFFFFF"></path>
                    <path d="M28.49279,28.723511 L28.4213166,28.70721 C26.8200627,28.3310345 20.476489,26.7824451 18.1115987,26.1203762 C17.3216301,25.8996865 17.1987461,25.7968652 17.0645768,25.646395 C16.9304075,25.4959248 16.768652,25.3141066 15.1335423,24.784953 C11.9611285,23.7605016 5.16865204,21.8031348 5.10219436,21.784326 L5.00940439,21.7567398 L6.23448276,17.8219436 L6.32476489,17.8507837 C8.83260188,18.677116 11.8068966,19.4721003 14.430094,20.1730408 C16.5492163,20.7398119 18.3799373,21.2288401 19.6539185,21.646395 C29.1034483,24.7398119 29.0407524,25.1009404 29.0144201,25.2551724 C29.003034,25.3070157 28.9631526,25.3478697 28.9115987,25.3605016 L29.0470219,27.6626959 L28.49279,28.723511 Z M5.24514107,21.6288401 C6.07272727,21.8670846 12.2181818,23.6438871 15.1912226,24.6043887 C16.8752351,25.1485893 17.0583072,25.3567398 17.2050157,25.5197492 C17.3053292,25.6326019 17.384326,25.7203762 18.1617555,25.938558 C20.4915361,26.5893417 26.6884013,28.1003135 28.3937304,28.5053292 L28.8551724,27.6200627 L28.7109718,25.1811912 L28.753605,25.1811912 C28.4263323,24.9504702 26.8501567,24.1968652 19.6,21.8219436 C18.3310345,21.4068966 16.5028213,20.9178683 14.384953,20.3523511 C11.7905956,19.6589342 8.85517241,18.8739812 6.35987461,18.0576803 L5.24514107,21.6288401 Z" id="Shape" fill="#000000"></path>
                    <path d="M2.96050157,16.7297806 L1.58119122,16.2645768 C1.22958131,16.7366759 0.948675435,17.2575134 0.747335423,17.8106583 C0.714733542,17.8971787 0.68338558,17.9836991 0.652037618,18.0739812 L0.614420063,18.184326 C0.599373041,18.2332288 0.5830721,18.2808777 0.569278997,18.3285266 C0.386883724,18.8906793 0.284727181,19.4757576 0.265830721,20.0664577 L1.67899687,20.5429467 L2.96050157,16.7297806 Z" id="Path" fill="#000000"></path>
                    <path d="M1.7354232,20.662069 L0.168025078,20.1341693 L0.168025078,20.0652038 C0.189711076,19.46578 0.293499328,18.8721618 0.476489028,18.3009404 C0.486520376,18.2695925 0.496551724,18.2357367 0.507836991,18.2018809 L0.560501567,18.0438871 C0.59184953,17.9523511 0.624451411,17.8645768 0.657053292,17.7768025 C0.862606519,17.2154468 1.14809883,16.6866948 1.50470219,16.2068966 L1.5460815,16.154232 L3.07962382,16.6708464 L1.7354232,20.662069 Z M0.356112853,20 L1.61003135,20.4238245 L2.8338558,16.7874608 L1.60501567,16.3736677 C1.2794236,16.8257893 1.0170257,17.3202111 0.82507837,17.8432602 C0.793730408,17.9272727 0.761128527,18.015047 0.731034483,18.1040752 L0.679623824,18.2583072 C0.669592476,18.2909091 0.65830721,18.3222571 0.649529781,18.353605 C0.480798159,18.8868462 0.382988423,19.4399771 0.35862069,19.9987461 L0.356112853,20 Z" id="Shape" fill="#FFFFFF"></path>
                    <path d="M3.2200627,16.8200627 L1.84075235,16.3548589 C1.4881935,16.8258975 1.2072043,17.346467 1.00689655,17.8996865 C0.974294671,17.9862069 0.94169279,18.0739812 0.910344828,18.1642633 L0.873981191,18.2733542 C0.858934169,18.323511 0.842633229,18.3711599 0.828840125,18.4188088 C0.646616829,18.9810486 0.544052824,19.5660433 0.524137931,20.1567398 L1.94231975,20.6319749 L3.2200627,16.8200627 Z" id="Path" fill="#000000"></path>
                    <path d="M1.99498433,20.7510972 L0.427586207,20.2231975 L0.427586207,20.1554859 C0.448444955,19.5559756 0.552252907,18.9622447 0.736050157,18.3912226 C0.744827586,18.3598746 0.754858934,18.3285266 0.766144201,18.2946708 L0.818808777,18.1341693 C0.851410658,18.0426332 0.882758621,17.953605 0.915360502,17.8670846 C1.12053066,17.3049204 1.40650098,16.775643 1.76426332,16.2959248 L1.80438871,16.2445141 L3.33918495,16.7611285 L1.99498433,20.7510972 Z M0.615673981,20.0890282 L1.87586207,20.5128527 L3.09968652,16.876489 L1.86959248,16.4626959 C1.54443322,16.9144335 1.28245416,17.4084391 1.09090909,17.9310345 C1.05830721,18.0163009 1.02695925,18.1028213 0.995611285,18.1918495 L0.942946708,18.3498433 C0.934169279,18.3811912 0.924137931,18.4112853 0.915360502,18.4413793 C0.744631239,18.9752748 0.644306581,19.5291681 0.6169279,20.0890282 L0.615673981,20.0890282 Z" id="Shape" fill="#FFFFFF"></path>
                    <path d="M3.47460815,16.907837 L2.09529781,16.4426332 C1.74154849,16.9151394 1.4597049,17.4374163 1.25893417,17.9924765 C1.22633229,18.0777429 1.19373041,18.1655172 1.16238245,18.2557994 L1.12601881,18.3661442 C1.10971787,18.415047 1.09467085,18.4626959 1.08087774,18.5103448 C0.898539189,19.0729865 0.795973774,19.6584113 0.776175549,20.2495298 L2.19059561,20.7260188 L3.47460815,16.907837 Z" id="Path" fill="#000000"></path>
                    <path d="M2.24952978,20.8401254 L0.680877743,20.3122257 L0.680877743,20.2495298 C0.701218937,19.6499656 0.805039312,19.0561637 0.989341693,18.4852665 C0.998119122,18.4539185 1.00940439,18.4200627 1.01943574,18.3862069 L1.07210031,18.2282132 C1.10470219,18.1366771 1.13605016,18.0476489 1.16865204,17.9611285 C1.37411466,17.3990958 1.66006286,16.8698594 2.01755486,16.3899687 L2.05768025,16.338558 L3.59247649,16.8551724 L2.24952978,20.8401254 Z M0.870219436,20.1768025 L2.13040752,20.6018809 L3.35423197,16.9655172 L2.12413793,16.5517241 C1.79927048,17.0036429 1.53731328,17.4976073 1.34545455,18.0200627 C1.31285266,18.1053292 1.2815047,18.1918495 1.25015674,18.2821317 L1.19874608,18.4363636 C1.18871473,18.4677116 1.17868339,18.5003135 1.16990596,18.5316614 C0.999293737,19.0647266 0.898969269,19.6177757 0.871473354,20.1768025 L0.870219436,20.1768025 Z" id="Shape" fill="#FFFFFF"></path>
                    <path d="M3.72037618,16.9893417 L2.34106583,16.5241379 C1.98945592,16.996237 1.70855004,17.5170745 1.50721003,18.0702194 C1.47460815,18.1554859 1.44326019,18.2432602 1.41191223,18.3335423 L1.37429467,18.4438871 C1.35924765,18.49279 1.34294671,18.5404389 1.32915361,18.5880878 C1.14693031,19.1503276 1.0443663,19.7353223 1.02445141,20.3260188 L2.43887147,20.8025078 L3.72037618,16.9893417 Z" id="Path" fill="#000000"></path>
                    <path d="M2.49529781,20.9253918 L0.927899687,20.3974922 L0.927899687,20.3285266 C0.949380449,19.7290814 1.05317357,19.1354353 1.23636364,18.5642633 C1.24639498,18.5329154 1.25642633,18.4990596 1.2677116,18.4652038 L1.32037618,18.30721 C1.35172414,18.215674 1.38432602,18.1266458 1.4169279,18.0401254 C1.62170904,17.478034 1.90725492,16.9487604 2.2645768,16.4689655 L2.30595611,16.4175549 L3.83949843,16.9341693 L2.49529781,20.9253918 Z M1.11598746,20.262069 L2.36990596,20.6871473 L3.59373041,17.0507837 L2.36489028,16.6369906 C2.03958391,17.0888383 1.77720316,17.582806 1.58495298,18.1053292 C1.55360502,18.1905956 1.52100313,18.277116 1.48965517,18.3673981 L1.43949843,18.5216301 C1.42821317,18.554232 1.41818182,18.5855799 1.40940439,18.6169279 C1.24067277,19.1501691 1.14286303,19.7033 1.1184953,20.262069 L1.11598746,20.262069 Z" id="Shape" fill="#FFFFFF"></path>
                    <path d="M3.05579937,21.5510972 L1.30031348,20.9592476 C1.32509071,20.2259592 1.45169443,19.4996759 1.67648903,18.8012539 C1.69404389,18.7423197 1.71410658,18.6821317 1.73291536,18.6219436 L1.77931034,18.4852665 C1.81818182,18.3724138 1.85705329,18.2645768 1.8984326,18.1567398 C2.14789467,17.4695962 2.49685905,16.822787 2.93416928,16.2369906 L6.17680251,17.3554859 L6.73479624,17.9749216 L6.06896552,19.9561129" id="Path" fill="#000000"></path>
                    <path d="M3.02570533,21.6401254 L1.27021944,21.0482759 C1.23133087,21.0355704 1.2053524,20.9988949 1.20624606,20.9579937 C1.23174404,20.2152529 1.36046032,19.479671 1.58871473,18.7724138 C1.59958203,18.7331243 1.61212121,18.6913271 1.62633229,18.6470219 L1.69153605,18.4501567 C1.73040752,18.3360502 1.77053292,18.2269592 1.81065831,18.1191223 C2.06490133,17.4233863 2.41885805,16.7682707 2.86144201,16.1742947 C2.8859712,16.1428255 2.92768813,16.1302602 2.96551724,16.1429467 L6.20564263,17.2677116 C6.22039743,17.2728861 6.23371775,17.2814799 6.24451411,17.29279 L6.80250784,17.9122257 C6.82498955,17.937505 6.83260076,17.9727068 6.82257053,18.0050157 L6.15548589,19.9862069 L5.97617555,19.9260188 L6.62821317,17.9924765 L6.12664577,17.4319749 L2.97053292,16.3435737 C2.56001864,16.9092446 2.2300146,17.5291627 1.98996865,18.1855799 C1.94984326,18.292163 1.91097179,18.4 1.87210031,18.5103448 L1.80815047,18.7047022 C1.79477534,18.7431557 1.78223615,18.7820272 1.77053292,18.8213166 C1.55525825,19.4902779 1.42878466,20.1846179 1.39435737,20.8865204 L3.08589342,21.4570533 L3.02570533,21.6401254 Z" id="Path" fill="#FFFFFF"></path>
                    <path d="M1.10219436,20.8965517 L4.55548589,22.0827586 L5.40188088,21.9360502 L6.06896552,19.9561129 L1.60752351,18.4275862 C1.60752351,18.4275862 1.53354232,18.6420063 1.51097179,18.7147335 C1.29932139,19.425839 1.16232292,20.1570577 1.10219436,20.8965517 L1.10219436,20.8965517 Z" id="Path" fill="#FFFFFF"></path>
                    <path d="M4.55548589,22.1768025 C4.54474088,22.1766492 4.53411536,22.1745241 4.52413793,22.1705329 L1.07210031,20.9855799 C1.03162513,20.9720102 1.00536714,20.9328806 1.00815047,20.8902821 C1.06997814,20.1432206 1.20864186,19.4045212 1.42194357,18.6858934 C1.44451411,18.6131661 1.5184953,18.3962382 1.5184953,18.3962382 C1.52663072,18.3713334 1.54478663,18.3509512 1.56858905,18.3400021 C1.59239147,18.329053 1.61968241,18.3285296 1.64388715,18.338558 L6.09905956,19.8733542 C6.14820218,19.8900048 6.17457436,19.9433102 6.15799373,19.9924765 L5.49090909,21.9724138 C5.47975559,22.0053958 5.45129267,22.029517 5.4169279,22.0351097 L4.57554859,22.1742947 L4.55548589,22.1768025 Z M1.20125392,20.831348 L4.5630094,21.984953 L5.33040752,21.8595611 L5.95485893,20.0137931 L1.67147335,18.5467085 C1.64890282,18.6144201 1.61880878,18.7021944 1.60626959,18.7435737 C1.40180181,19.4242069 1.26611749,20.1236323 1.20125392,20.831348 L1.20125392,20.831348 Z" id="Shape" fill="#000000"></path>
                    <path d="M2.36489028,17.7705329 C2.56210425,17.342636 2.79051528,16.9298197 3.04827586,16.5354232 L5.82821317,17.5009404 C3.03448276,16.5680251 2.37617555,17.754232 2.36489028,17.7705329 Z" id="Path" fill="#FFFFFF"></path>
                    <path d="M4.62194357,20.49279 C4.47611363,20.6460464 4.27762428,20.7383462 4.06645768,20.7510972 C4.06645768,20.7510972 4.35736677,20.6257053 4.4,20.4037618 C4.2369906,20.4263323 3.91724138,20.4037618 3.44576803,20.0275862 C3.49717868,20.0514107 4.3322884,20.4539185 4.4338558,20.2357367 L4.4338558,20.1366771 L2.86520376,19.4746082 L4.81504702,20.1316614 C4.76529785,20.2593016 4.7004702,20.3805377 4.62194357,20.49279 Z" id="Path" fill="#000000"></path>
                    <ellipse id="Oval" fill="#FFFFFF" transform="translate(5.723499, 19.840686) rotate(-71.390000) translate(-5.723499, -19.840686) " cx="5.72349913" cy="19.8406858" rx="1" ry="1"></ellipse>
                    <path d="M5.34796238,19.7479624 C5.41904589,19.5361946 5.3075398,19.3064921 5.09717868,19.231348 L2.13040752,18.200627 C2.07072183,18.1799144 2.00523655,18.1838906 1.94849543,18.2116726 C1.89175431,18.2394546 1.84845473,18.2887423 1.82821317,18.3485893 L1.70282132,18.7147335 C1.66192847,18.8379143 1.72715917,18.9711633 1.84952978,19.0144201 L4.81253918,20.0438871 C4.91496222,20.0799381 5.02752013,20.0737578 5.12538034,20.0267096 C5.22324055,19.9796614 5.29836125,19.8956117 5.33416928,19.7931034 L5.34796238,19.7479624 Z" id="Path" fill="#000000"></path>
                    <path d="M4.95172414,20.1567579 C4.89497341,20.1570456 4.83858237,20.1477177 4.78495298,20.1291536 L1.8169279,19.0996865 C1.64687391,19.0381903 1.55638409,18.8527694 1.61253918,18.6808777 L1.73793103,18.3147335 C1.76583116,18.2308004 1.82639644,18.161663 1.90592766,18.1229594 C1.98545889,18.0842557 2.07723656,18.0792559 2.16050157,18.1090909 L5.12727273,19.1398119 C5.3870939,19.2305231 5.52529862,19.5136469 5.4369906,19.7742947 L5.42319749,19.8144201 C5.38238814,19.9413167 5.29191261,20.0462683 5.17241379,20.1053292 C5.1039878,20.1397781 5.02832967,20.157403 4.95172414,20.1567579 Z M2.0539185,18.2758621 C2.03268089,18.2759583 2.01171738,18.2806644 1.99247649,18.2896552 C1.95815004,18.3064158 1.93196001,18.3362182 1.91974922,18.3724138 L1.79435737,18.738558 C1.76931299,18.812622 1.80841762,18.8930658 1.88213166,18.9191223 L4.84388715,19.9485893 C4.92334826,19.9764485 5.01065921,19.9713053 5.08629996,19.9343096 C5.16194071,19.897314 5.21960288,19.8315513 5.24639498,19.7517241 L5.26018809,19.7115987 C5.31518208,19.548234 5.22853461,19.371026 5.06583072,19.3141066 L2.10031348,18.2833856 C2.08394869,18.2791628 2.06703367,18.2774713 2.05015674,18.2783699 L2.0539185,18.2758621 Z" id="Shape" fill="#FFFFFF"></path>
                    <line x1="6.17680251" y1="17.3554859" x2="5.26394984" y2="20.1416928" id="Path" fill="#000000"></line>
                    <polygon id="Rectangle" fill="#FFFFFF" transform="translate(5.721257, 18.750646) rotate(-71.830000) translate(-5.721257, -18.750646) " points="4.25542617 18.6967273 7.18708761 18.6967273 7.18708761 18.8045643 4.25542617 18.8045643"></polygon>
                    <polygon id="Path" fill="#FFFFFF" points="4.52539185 21.9510972 1.20626959 20.8100313 1.13605016 21.0495298 1.22382445 21.0595611 1.28275862 21.0670846 4.54670846 22.184326 4.62570533 22.1830721 4.73103448 21.9360502"></polygon>
                    <path d="M1.75548589,19.5109718 C1.65521177,19.9715601 1.58857823,20.438833 1.55611285,20.9090909 C1.55611285,20.9090909 4.34858934,21.860815 4.34108101,21.8595624 C1.58495298,20.8639498 1.75548589,19.5310345 1.75548589,19.5109718 Z" id="Path" fill="#231F20"></path>
                    <path d="M22.5429467,10.1153605 C20.6495298,9.59373041 17.6727273,9.06583072 14.3184953,9.06583072 C11.7820729,9.08235337 9.25535764,9.38094988 6.78495298,9.95611285 C6.44768251,10.0358097 6.20848392,10.3355846 6.20564263,10.6821317 L6.20564263,10.6959248 C6.20897314,11.0807722 6.5022056,11.4010556 6.88526646,11.4382445 L6.9015674,15.9272727 C6.90194174,16.0882769 6.97525594,16.2404384 7.10094044,16.3410658 L10.0438871,18.7109718 C10.2102923,18.8448577 10.3119508,19.0431601 10.323511,19.2564263 L10.4489028,21.7554859 L11.4432602,47.1448276 L17.5611285,47.1448276 L18.677116,21.754232 L18.815047,19.2714734 C18.8269645,19.0538988 18.9326277,18.8521781 19.1047022,18.7184953 L22.2018809,16.3260188 C22.332462,16.2252728 22.4088938,16.06963 22.4087774,15.9047022 L22.4087774,11.5749216 C22.7674464,11.543329 23.0521651,11.2596931 23.0851242,10.9011471 C23.1180834,10.5426011 22.8898453,10.211812 22.5429467,10.1153605 L22.5429467,10.1153605 Z" id="Path" fill="#C02032"></path>
                    <path d="M17.6777429,47.2702194 L11.3203762,47.2702194 L11.3203762,47.1448276 L10.3260188,21.7554859 L10.200627,19.2589342 C10.1914277,19.0811577 10.1070897,18.9156729 9.96865204,18.8037618 L7.02445141,16.4338558 C6.86776252,16.3105959 6.7755102,16.1228624 6.77366771,15.923511 L6.75736677,11.5347962 C6.35961962,11.4464805 6.07688776,11.0933265 6.07774101,10.6858934 L6.07774101,10.6721003 C6.08146016,10.2657036 6.36367789,9.9150066 6.75987461,9.82445141 C9.23868857,9.24349057 11.7750533,8.94358542 14.3210031,8.93031121 C17.1072821,8.92360053 19.8827123,9.27764174 22.5780564,9.98369906 L22.5780564,9.98369906 C22.9627204,10.0904125 23.2254485,10.4451586 23.2153681,10.8442232 C23.2052877,11.2432877 22.9249843,11.5843169 22.5354232,11.6714734 L22.5354232,15.8959248 C22.5362718,16.0987131 22.4437869,16.2906191 22.2846395,16.4163009 L19.1874608,18.8100313 C19.0447803,18.9211307 18.9570188,19.0884261 18.9467085,19.2689655 L18.8087774,21.7529781 L17.6777429,47.2702194 Z M11.5611285,47.0194357 L17.4382445,47.0194357 L18.5529781,21.754232 L18.6896552,19.2689655 C18.7038902,19.0152483 18.8273842,18.7801524 19.0282132,18.6244514 L22.1304075,16.2282132 C22.2299341,16.1508935 22.2882306,16.0319872 22.2884013,15.9059561 L22.2884013,11.462069 L22.4012539,11.4507837 C22.7011259,11.4264819 22.9401761,11.190224 22.9679996,10.8906583 C22.995823,10.5910926 22.8043734,10.3148501 22.5141066,10.2357367 C19.8404425,9.53546545 17.0873511,9.18437464 14.323511,9.1911243 C11.79612,9.20424181 9.27824627,9.50204579 6.81755486,10.0789969 C6.5356791,10.1437591 6.33468079,10.3929348 6.33103448,10.6821317 L6.33103448,10.6959248 C6.33103448,11.0170717 6.57662375,11.2848986 6.89655172,11.3128527 L7.00940439,11.3241379 L7.02695925,15.9272727 C7.02751681,16.0500417 7.08322366,16.1660593 7.17868339,16.2432602 L10.1178683,18.6194357 C10.3116179,18.7760539 10.4296843,19.0076283 10.4426332,19.2564263 L10.5680251,21.7554859 L11.5611285,47.0194357 Z" id="Shape" fill="#FFFFFF"></path>
                    <path d="M16.9805643,45.784326 L18.0514107,19.0846395 C18.0514107,18.9341693 17.9836991,18.9090909 17.8369906,18.8802508 C17.1887147,18.7548589 15.9824451,18.6507837 14.1830721,18.6507837 C12.3836991,18.6507837 11.5297806,18.8451411 11.5297806,18.9253918 C11.5297806,19.0056426 13.0344828,18.8 14.5905956,19.0670846 C15.8758621,19.2890282 15.8896552,19.9448276 15.9047022,20.5454545 C15.9172414,21.0470219 16.1554859,45.1373041 16.2181818,45.6501567 C16.2257053,45.7241379 16.9805643,45.8583072 16.9805643,45.784326 Z" id="Path" fill="#FFFFFF"></path>
                    <path d="M11.7630094,20.9266458 L12.7059561,48.8815047 C12.7172414,49.030721 12.7874608,49.0507837 12.9366771,49.0670846 C13.5924765,49.1398119 14.7962382,49.0670846 16.5905956,48.9266458 C18.384953,48.7862069 18.7222571,48.5981191 18.7222571,48.5178683 C18.7222571,48.4376176 16.6946708,48.7423197 15.1172414,48.599373 C13.8181818,48.4815047 13.6351097,47.9034483 13.5724138,47.3065831 C13.5210031,46.8050157 12.0100313,21.6012539 11.9109718,21.0896552 C11.8934169,21.0169279 11.7567398,20.8526646 11.7630094,20.9266458 Z" id="Path" fill="#FFFFFF"></path>
                    <path d="M7.47210031,11.4344828 C7.42570533,11.4445141 7.47210031,14.4890282 7.47210031,14.4890282 C7.47310089,14.5158137 7.48701213,14.5404557 7.5094288,14.5551511 C7.53184547,14.5698465 7.55999114,14.572775 7.58495298,14.5630094 C7.87836991,14.4551724 8.78996865,14.1868339 10.8326019,14.0025078 C12.569279,13.8495298 14.3811912,13.8219436 14.8539185,13.7956113 C12.8149198,13.7210971 10.7732073,13.7885536 8.74357367,13.9974922 C7.84952978,14.0978056 7.70658307,14.1341693 7.67899687,13.6087774 C7.65141066,13.0833856 7.62507837,12.9253918 7.59623824,12.3485893 C7.59373041,12.2721003 7.5184953,11.4244514 7.47210031,11.4344828 Z" id="Path" fill="#FFFFFF"></path>
                    <path d="M7.53605016,15.9285266 C7.47473747,15.8721045 7.44882787,15.7868799 7.46836183,15.7058791 C7.48789579,15.6248783 7.54980332,15.5608314 7.63009404,15.538558 C8.22060971,15.3864525 8.8237094,15.2882442 9.43197492,15.2451411 C11.0896552,15.0884013 11.3429467,15.0796238 12.0652038,15.1034483 C12.1667712,15.1034483 8.24952978,15.3893417 7.84576803,15.7103448 C7.62633229,15.8846395 8.22194357,16.3147335 8.77617555,16.8388715 C9.19749216,17.2351097 9.95611285,17.8695925 9.9799373,18.0062696 C9.98495298,18.0689655 8.23824451,16.5642633 7.53605016,15.9285266 Z" id="Path" fill="#FFFFFF"></path>
                    <path d="M10.8087774,14.5818182 C10.5479624,14.5579937 12.5354232,14.3172414 14.0112853,14.2758621 C14.7523511,14.2545455 18.4915361,14.3109718 18.8940439,14.3510972 C19.4068966,14.4025078 19.2702194,12.0852665 19.2702194,11.9811912 C19.2551724,11.3341693 18.3272727,11.1347962 17.4357367,11.0169279 C13.6476489,10.5153605 11.030721,10.922884 11.030721,10.8401254 C11.030721,10.7573668 13.8670846,10.5090909 15.7956113,10.599373 C17.8796238,10.6959248 21.0282132,11.2388715 21.553605,11.3517241 C21.7115987,11.3868339 21.8633229,11.4181818 21.8633229,11.5799373 L21.8181818,15.615047 C21.8173833,15.7485406 21.7560394,15.8744571 21.6514107,15.9573668 C20.9780564,16.49279 18.3335423,18.5805643 18.3109718,18.5354232 C18.3034483,18.5216301 16.1115987,18.3047022 14.8739812,18.3097179 C13.5272727,18.3172414 13.1887147,18.3937304 13.2376176,18.3586207 C13.5009404,18.169279 15.2952978,18.2909091 15.7579937,17.969906 C16.1341693,17.7090909 18.5642633,15.6526646 18.9178683,14.8940439 C18.999373,14.7184953 18.7523511,14.6695925 18.6670846,14.662069 C16.0533119,14.4394621 13.4265512,14.4126371 10.8087774,14.5818182 L10.8087774,14.5818182 Z" id="Path" fill="#FFFFFF"></path>
                    <path d="M6.53416928,10.6984326 C6.52037618,10.3021944 6.92664577,10.2257053 7.43949843,10.1191223 C7.9523511,10.0125392 8.61191223,9.89467085 8.99937304,9.84702194 C9.32288401,9.80815047 10.2946708,9.64263323 9.47711599,9.84075235 C8.65956113,10.0388715 6.88902821,10.3423197 6.81253918,10.5630094 C6.73605016,10.7836991 7.09216301,10.7460815 7.08589342,10.9981191 C7.08338558,11.1134796 6.54670846,11.0959248 6.53416928,10.6984326 Z" id="Path" fill="#FFFFFF"></path>
                    <path d="M22.7761755,10.8351097 C22.8263323,10.368652 22.2194357,10.2633229 19.9448276,9.84200627 C17.6702194,9.42068966 16.5818182,9.43197492 17.1122257,9.50344828 C18.2746082,9.65893417 19.2050157,9.79811912 20.4,10.0626959 C22.2507837,10.4714734 21.9435737,11.0532915 22.2319749,11.2250784 C22.3572282,11.2588084 22.491007,11.2345532 22.5964457,11.1589969 C22.7018844,11.0834405 22.7678542,10.9645579 22.7761755,10.8351097 L22.7761755,10.8351097 Z" id="Path" fill="#FFFFFF"></path>
                    <path d="M9.51974922,26.6294671 C9.51974922,26.6294671 4.70094044,25.2401254 1.8169279,25.2401254 C1.66394984,25.2401254 1.74169279,28.1680251 1.74169279,28.1680251 L6.40752351,29.6539185 L9.51974922,26.6294671 Z" id="Path" fill="#FFFFFF"></path>
                    <path d="M6.44012539,29.8018809 L1.62257053,28.2595611 L1.62257053,28.1705329 C1.57241379,26.2896552 1.60626959,25.2777429 1.72163009,25.1611285 C1.74830342,25.1335761 1.7848529,25.1177831 1.82319749,25.1172414 C4.68714734,25.1172414 9.50846395,26.4965517 9.55611285,26.5103448 L9.76426332,26.5705329 L6.44012539,29.8018809 Z M1.86833856,28.0752351 L6.37366771,29.5172414 L9.27523511,26.6909091 C8.32978056,26.430094 4.39373041,25.3880878 1.8984326,25.3667712 C1.84451411,25.6639498 1.83949843,26.9128527 1.86833856,28.0752351 Z" id="Shape" fill="#000000"></path>
                    <path d="M30.030094,24.8213166 C29.8946708,24.0689655 28.9818182,23.4846395 26.6733542,23.1510972 C24.3648903,22.8175549 22.5592476,22.8727273 19.3341693,23.261442 C16.4639498,23.6087774 12.0238245,24.1793103 7.56363636,25.6564263 C1.71912226,27.5912226 2.00376176,26.0326019 2.00376176,26.0326019 C2.02257053,25.5887147 2.84514107,25.1435737 6.05517241,25.9498433 C6.49529781,26.0852665 0.945454545,23.8181818 0.446394984,26.1780564 C0.298432602,26.8815047 0.535423197,27.5974922 0.551724138,28.2633229 C0.585579937,29.6965517 1.86959248,30.8965517 3.68652038,30.7949843 C6.35485893,30.6570533 7.78432602,29.8984326 10.6633229,28.9880878 C18.061442,26.6532915 28.3247649,26.7561129 28.5943574,27.9059561 C28.7322884,28.4978056 27.5410658,28.4275862 25.6025078,28.031348 L24.6194357,27.7103448 C24.6319749,27.7103448 26.876489,28.6821317 28.7335423,28.6432602 C29.8695925,28.6194357 29.7366771,27.3429467 29.8445141,26.5717868 C29.9523511,25.800627 30.1730408,25.6338558 30.030094,24.8213166 Z" id="Path" fill="#FFFFFF"></path>
                    <g id="Group" transform="translate(0.000000, 23.699060)" fill="#000000">
                        <path d="M29.1347962,0.970532915 C28.8937677,0.870736254 28.6476602,0.783677804 28.3974922,0.709717868 C28.1459383,0.633661489 27.8901113,0.572530989 27.631348,0.526645768 C27.8835391,0.588797011 28.132179,0.664561047 28.3761755,0.753605016 C28.616092,0.843887147 28.8493208,0.9446186 29.0758621,1.05579937 C29.3024033,1.16698015 29.5205852,1.2861024 29.7304075,1.41316614 C29.8683386,1.49467085 30.0012539,1.58119122 30.1304075,1.67398119 C30.1680251,1.61128527 30.199373,1.55736677 30.2257053,1.50971787 C30.0994775,1.43448276 29.9703239,1.3630094 29.8382445,1.29529781 C29.6112853,1.17742947 29.3755486,1.0645768 29.1347962,0.970532915 Z" id="Path"></path>
                        <path d="M28.2394984,0.204388715 C28.4644327,0.279015386 28.6850447,0.366088057 28.9003135,0.465203762 C29.1134796,0.561755486 29.3191223,0.668338558 29.5272727,0.78369906 C29.6998681,0.87973758 29.8672888,0.984794086 30.0288401,1.0984326 C30.0564769,1.02530352 30.0564769,0.944602436 30.0288401,0.871473354 C29.8959248,0.794984326 29.7579937,0.72476489 29.6200627,0.65830721 C29.4035528,0.553814002 29.1824451,0.459770115 28.9567398,0.376175549 C28.7303586,0.290684694 28.4992577,0.218256314 28.2645768,0.159247649 C28.0299065,0.0982285886 27.7916013,0.0521590494 27.5510972,0.0213166144 C27.7839646,0.0687505645 28.013831,0.129880786 28.2394984,0.204388715 Z" id="Path"></path>
                        <path d="M29.2589342,1.51974922 C29.0185479,1.41795465 28.7728402,1.32921522 28.522884,1.2539185 C28.2715615,1.17603946 28.0157,1.11364443 27.7567398,1.06708464 C28.0090893,1.12919901 28.2574095,1.20666821 28.5003135,1.29905956 C28.7385242,1.38878071 28.9720506,1.49047769 29.2,1.60376176 C29.4231975,1.71661442 29.6426332,1.83824451 29.8520376,1.9661442 C29.8959248,1.99373041 29.9410658,2.02131661 29.9774295,2.05015674 C29.9962382,1.99498433 30.0163009,1.94231975 30.0351097,1.89216301 L29.9548589,1.84952978 C29.7308255,1.72998955 29.4988506,1.6200627 29.2589342,1.51974922 Z" id="Path"></path>
                        <path d="M29.1322884,2.80250784 C28.9103065,2.69088442 28.6796716,2.59737245 28.4426332,2.52288401 C28.2052499,2.44698409 27.9625831,2.38872729 27.7166144,2.34858934 C27.9553386,2.4066467 28.1892545,2.48294184 28.4163009,2.57680251 C28.6372253,2.66582188 28.8503011,2.77319865 29.0532915,2.89780564 C29.2621132,3.03307565 29.4603822,3.18397805 29.646395,3.3492163 C29.7015674,3.39310345 29.754232,3.43949843 29.8056426,3.48714734 C29.8382445,3.42319749 29.8695925,3.36175549 29.9009404,3.30031348 C29.8670846,3.27523511 29.8319749,3.25266458 29.7968652,3.22884013 C29.5855337,3.07143287 29.3634679,2.9289756 29.1322884,2.80250784 L29.1322884,2.80250784 Z" id="Path"></path>
                        <path d="M27.7354232,1.95987461 C28.1939601,2.08352515 28.6385259,2.25412415 29.062069,2.46896552 C29.3517241,2.61316614 29.6363636,2.76739812 29.9109718,2.93040752 C29.9347962,2.87648903 29.9586207,2.82382445 29.9799373,2.77241379 C29.6990596,2.63197492 29.4106583,2.50282132 29.1172414,2.38244514 C28.6723285,2.19462051 28.2092898,2.05301972 27.7354232,1.95987461 L27.7354232,1.95987461 Z" id="Path"></path>
                        <path d="M29.1247649,1.95611285 C28.9003135,1.87210031 28.6708464,1.7968652 28.4388715,1.73291536 C28.2068966,1.66896552 27.9724138,1.61504702 27.7366771,1.56865204 C27.9673981,1.63134796 28.1981191,1.69404389 28.4200627,1.77805643 C28.6420063,1.86206897 28.8601881,1.9460815 29.0733542,2.04388715 C29.2865204,2.14169279 29.4871473,2.24576803 29.6852665,2.35987461 C29.7579937,2.40125392 29.8269592,2.44388715 29.8959248,2.48526646 C29.9159875,2.43009404 29.938558,2.37742947 29.9598746,2.32601881 C29.9009404,2.29592476 29.8432602,2.26583072 29.784326,2.23824451 C29.569906,2.1354232 29.3492163,2.04137931 29.1247649,1.95611285 Z" id="Path"></path>
                        <path d="M29.3705329,4.50407524 C29.3705329,4.50407524 29.9724138,3.35924765 27.6789969,2.82382445 C27.6789969,2.82382445 29.1034483,2.9153605 29.7467085,3.9523511 L29.5059561,4.49529781 L29.3705329,4.50407524 Z" id="Path"></path>
                        <path d="M1.29655172,5.92852665 C1.55054485,5.98913085 1.80753029,6.03642622 2.06645768,6.07021944 C2.32676159,6.10490473 2.58884581,6.12458198 2.85141066,6.12915361 C2.5925588,6.10814492 2.33509706,6.07256078 2.08025078,6.02257053 C1.82946708,5.97115987 1.57868339,5.90971787 1.34169279,5.83448276 C1.10470219,5.75924765 0.867711599,5.67774295 0.639498433,5.58369906 C0.490282132,5.52476489 0.344827586,5.45830721 0.203134796,5.38934169 C0.176802508,5.45705329 0.152978056,5.51473354 0.135423197,5.56739812 C0.270846395,5.6200627 0.411285266,5.67021944 0.550470219,5.71661442 C0.794984326,5.79937304 1.04326019,5.86833856 1.29655172,5.92852665 Z" id="Path"></path>
                        <path d="M2.41755486,6.49278997 C2.18223723,6.46362912 1.94866772,6.42177078 1.71786834,6.36739812 C1.49090909,6.31473354 1.2677116,6.25203762 1.04576803,6.17931034 C0.859229637,6.11944232 0.675912652,6.04996602 0.496551724,5.97115987 C0.482817251,6.0481153 0.497523428,6.12743952 0.537931034,6.19435737 C0.684639498,6.24200627 0.832601881,6.28338558 0.981818182,6.31974922 C1.21504702,6.37742947 1.4507837,6.42507837 1.68902821,6.46269592 C1.92782429,6.5005578 2.16852227,6.52525551 2.41003135,6.53667712 C2.65200046,6.54900729 2.89451408,6.5456565 3.13605016,6.52664577 C2.89607875,6.53043748 2.65610645,6.51912989 2.41755486,6.49278997 L2.41755486,6.49278997 Z" id="Path"></path>
                        <path d="M1.09717868,5.46081505 C1.35214323,5.51893163 1.60996444,5.56371551 1.86959248,5.59498433 C2.13048022,5.62679366 2.39298445,5.64354035 2.65579937,5.64514107 C2.39660324,5.62734851 2.13868339,5.59427113 1.88338558,5.5460815 C1.63300868,5.49920095 1.38523514,5.43935025 1.14106583,5.36677116 C0.90031348,5.29529781 0.663322884,5.2137931 0.435109718,5.12351097 C0.387460815,5.10470219 0.337304075,5.08589342 0.290909091,5.0645768 C0.282131661,5.12225705 0.272100313,5.17742947 0.262068966,5.22884013 L0.348589342,5.25768025 C0.594357367,5.3354232 0.843887147,5.4031348 1.09717868,5.46081505 Z" id="Path"></path>
                        <path d="M0.889028213,3.94858934 C1.12092643,4.03877836 1.36001837,4.10924757 1.60376176,4.15924765 C1.84734997,4.21252157 2.09468984,4.24689762 2.34357367,4.26206897 C2.10036154,4.22799904 1.86014736,4.17517707 1.62507837,4.10407524 C1.39629812,4.03866621 1.17320415,3.9547963 0.95799373,3.85329154 C0.737070275,3.73883418 0.52498816,3.60806418 0.323510972,3.46206897 C0.264576803,3.42319749 0.20815047,3.3830721 0.152978056,3.33667712 C0.126645768,3.40438871 0.10031348,3.46959248 0.0752351097,3.5322884 L0.185579937,3.59498433 C0.411759535,3.72869246 0.646786581,3.8468344 0.889028213,3.94858934 L0.889028213,3.94858934 Z" id="Path"></path>
                        <path d="M2.47523511,4.75736677 C2.00493071,4.68965032 1.5427658,4.57410909 1.09592476,4.41253918 C0.791222571,4.30344828 0.490282132,4.18432602 0.196865204,4.05517241 C0.179310345,4.11159875 0.163009404,4.16802508 0.147962382,4.22068966 C0.443887147,4.32601881 0.746081505,4.4200627 1.0507837,4.50407524 C1.51578391,4.6365876 1.99305769,4.72145494 2.47523511,4.75736677 Z" id="Path"></path>
                        <path d="M1.11724138,5.00689655 C1.35214211,5.05872518 1.58871473,5.10052247 1.82695925,5.1322884 C2.06645768,5.16489028 2.30595611,5.18244514 2.54670846,5.19623824 C2.30846395,5.1661442 2.07147335,5.13354232 1.83949843,5.0846395 C1.60752351,5.03573668 1.38056426,4.98181818 1.15485893,4.9153605 C0.929153605,4.84890282 0.717241379,4.77366771 0.504075235,4.68840125 C0.427586207,4.65830721 0.352351097,4.62570533 0.278369906,4.59310345 C0.265830721,4.6507837 0.250783699,4.70595611 0.238244514,4.76112853 C0.29968652,4.78244514 0.363636364,4.80376176 0.423824451,4.82257053 C0.650783699,4.89278997 0.882758621,4.95172414 1.11724138,5.00689655 Z" id="Path"></path>
                        <path d="M0.640752351,2.25203762 C0.640752351,2.25203762 0.346081505,3.57617555 2.39623824,3.84075235 C2.39623824,3.84075235 0.865203762,4.0137931 0.389968652,2.68965517 L0.490282132,2.26081505 L0.640752351,2.25203762 Z" id="Path"></path>
                    </g>
                    <path d="M26.937931,31.815674 C26.8789969,31.1109718 26.2532915,30.4915361 24.3510972,30.4363636 C22.1329154,30.3661442 18.0175549,31.1887147 14.5504702,32.1768025 C12.4639498,32.768652 10.7523511,33.3755486 8.90783699,34.0125392 C4.07899687,35.6789969 4.81504702,34.7899687 4.81504702,34.7899687 C5.08840125,34.384953 5.94357367,34.2018809 7.61504702,34.3297806 C8,34.338558 4.17429467,33.2451411 3.45956113,34.8175549 C3.18871473,35.4131661 3.36802508,36.2557994 3.45956113,36.8752351 C3.58495298,37.6677116 3.23009404,38.630721 4.52288401,39.0708464 C5.81567398,39.5109718 7.57617555,38.7786834 11.1247649,37.3755486 C16.5040752,35.2438871 24.8739812,33.9611285 25.2476489,35.0783699 C25.3003135,35.2363636 24.677116,35.4996865 22.7862069,34.7347962 C22.7862069,34.7347962 25.0583072,36.1592476 25.8721003,35.5962382 C26.5956113,35.0946708 26.4351097,34.3937304 26.6094044,33.6087774 C26.8137931,32.7084639 26.9943574,32.5003135 26.937931,31.815674 Z" id="Path" fill="#FFFFFF"></path>
                    <g id="Group" transform="translate(3.134796, 30.846395)" fill="#000000">
                        <path d="M22.8564263,0.331034483 C23.0225323,0.405927861 23.1845186,0.489641719 23.3416928,0.581818182 C23.4785013,0.662713768 23.6107786,0.751038189 23.737931,0.846394984 C23.7316614,0.772413793 23.7253918,0.698432602 23.7191223,0.629467085 C23.6175549,0.568025078 23.5122257,0.512852665 23.4068966,0.461442006 C23.2387951,0.378621505 23.0663386,0.304950755 22.8902821,0.240752351 C22.7156215,0.175933508 22.536729,0.123145566 22.3548589,0.0827586207 C22.174187,0.0413382553 21.9905569,0.0140872144 21.8056426,0.0012539185 C21.9878727,0.0293527209 22.1677017,0.0712708998 22.3435737,0.126645768 C22.5186165,0.184022188 22.6899014,0.252284879 22.8564263,0.331034483 L22.8564263,0.331034483 Z" id="Path"></path>
                        <path d="M23.1974922,3.07084639 C23.0206787,2.94337805 22.8296346,2.83691512 22.6282132,2.75360502 C22.4294054,2.67089585 22.2249072,2.60259013 22.0163009,2.5492163 L21.7028213,2.47899687 L21.3868339,2.42507837 L21.6965517,2.5015674 L22.0025078,2.59435737 C22.2021376,2.66407802 22.3965657,2.74788325 22.584326,2.84514107 C22.7685158,2.937707 22.9410878,3.05177291 23.0984326,3.18495298 C23.1746359,3.24901341 23.2443549,3.32041237 23.3065831,3.39811912 C23.3414154,3.44947641 23.3712287,3.50406408 23.3956113,3.56112853 C23.437914,3.50382705 23.477255,3.4443971 23.5134796,3.3830721 C23.4935181,3.35078191 23.4704175,3.32054122 23.4445141,3.29278997 C23.3689761,3.21157067 23.2863042,3.13729177 23.1974922,3.07084639 Z" id="Path"></path>
                        <path d="M22.1065831,2.04639498 C22.29506,2.08567715 22.4793782,2.14277803 22.6570533,2.2169279 C22.8306156,2.2871176 22.9983316,2.37097561 23.1586207,2.4677116 C23.3114614,2.56008287 23.4558094,2.66582619 23.5899687,2.78369906 C23.6138901,2.71081871 23.6339803,2.63673617 23.6501567,2.56175549 C23.5220863,2.4743001 23.387526,2.39674978 23.2476489,2.32978056 C23.0691564,2.24241758 22.8837891,2.16986432 22.6934169,2.11285266 C22.5038469,2.05287195 22.3090464,2.01088907 22.1115987,1.98746082 C21.9170225,1.96277153 21.7206196,1.95563724 21.5247649,1.9661442 C21.7207039,1.9755502 21.9154141,2.00240678 22.1065831,2.04639498 Z" id="Path"></path>
                        <path d="M23.6652038,2.12915361 L23.6752351,2.12915361 L23.7003135,2.13793103 C23.7090909,2.07523511 23.7166144,2.01253918 23.722884,1.94733542 C23.4171855,1.80133779 23.1021855,1.6756729 22.7799373,1.57115987 C22.4499056,1.45742328 22.1062758,1.38785406 21.7579937,1.36426332 C22.0995371,1.41796074 22.432571,1.51618467 22.7485893,1.65642633 C23.0638808,1.79432559 23.3700422,1.95222279 23.6652038,2.12915361 L23.6652038,2.12915361 Z" id="Path"></path>
                        <path d="M22.7937304,1.20752351 C22.9525973,1.26003872 23.1083366,1.32158085 23.2601881,1.39184953 C23.4099964,1.4606269 23.5545816,1.54025354 23.69279,1.63009404 L23.69279,1.63009404 L23.7015674,1.63009404 C23.7114523,1.63625004 23.7225939,1.64010674 23.7341693,1.64137931 C23.7341693,1.64137931 23.7341693,1.64137931 23.7341693,1.64137931 C23.7341693,1.57115987 23.7341693,1.50344828 23.7266458,1.4369906 C23.5915882,1.36839118 23.4520917,1.30890615 23.3090909,1.25893417 C23.1479013,1.20058605 22.9833392,1.15201301 22.8163009,1.11347962 C22.6510438,1.07467397 22.4835305,1.04619671 22.3147335,1.02821317 C22.1482258,1.00895689 21.9807818,0.998910242 21.8131661,0.998119122 C21.9815779,1.01423054 22.1490065,1.03934484 22.3147335,1.07335423 C22.4768424,1.10884496 22.6367728,1.15364222 22.7937304,1.20752351 L22.7937304,1.20752351 Z" id="Path"></path>
                        <path d="M22.861442,0.766144201 C23.0224128,0.828445405 23.1798114,0.899609656 23.3329154,0.979310345 C23.4827528,1.05543599 23.6247151,1.14615743 23.7567398,1.25015674 L23.7567398,1.25015674 L23.7630094,1.25015674 C23.7731331,1.25745894 23.7846611,1.26258248 23.7968652,1.26520376 C23.7968652,1.18996865 23.7905956,1.1184953 23.7893417,1.04827586 C23.6602527,0.969006209 23.5247781,0.900639736 23.384326,0.843887147 C23.2202508,0.777187992 23.0528384,0.719012194 22.8827586,0.669592476 C22.7134796,0.618181818 22.5429467,0.579310345 22.3711599,0.544200627 C22.199373,0.509090909 22.0275862,0.482758621 21.8545455,0.460188088 C22.0250784,0.497805643 22.1943574,0.540438871 22.3561129,0.585579937 C22.5178683,0.630721003 22.7009404,0.702194357 22.861442,0.766144201 Z" id="Path"></path>
                        <path d="M22.9429467,3.71410658 C22.8558234,3.62328425 22.7566798,3.54481315 22.6482759,3.48087774 C22.440664,3.35844974 22.2198111,3.26001249 21.9899687,3.18746082 C21.7655172,3.11347962 21.5373041,3.06206897 21.307837,3.0031348 C21.5322884,3.07210031 21.7567398,3.14858934 21.9749216,3.23887147 C22.1925045,3.32587099 22.399479,3.43735116 22.5918495,3.57115987 C22.7799373,3.69655172 22.9504702,3.88338558 22.9780564,4.08401254 C22.994724,4.25125165 22.9342535,4.41696849 22.8137931,4.53416928 C22.9379814,4.43232353 23.0514246,4.31803997 23.1523511,4.19310345 C23.1523,4.14837627 23.147253,4.10379475 23.1373041,4.06018809 C23.105252,3.92927741 23.0380472,3.80960964 22.9429467,3.71410658 Z" id="Path"></path>
                        <path d="M1.54984326,7.81442006 C1.369279,7.78557994 1.18996865,7.75047022 1.01316614,7.70532915 C0.860188088,7.66645768 0.709717868,7.6200627 0.559247649,7.5661442 C0.586833856,7.63260188 0.611912226,7.69153605 0.636990596,7.75924765 C0.752351097,7.78808777 0.867711599,7.81191223 0.9830721,7.83197492 C1.16739817,7.86387393 1.35321328,7.88647306 1.53981191,7.89968652 C1.72603822,7.91157595 1.91283325,7.91157595 2.09905956,7.89968652 C2.28395775,7.89138375 2.46796815,7.86916838 2.64952978,7.83322884 C2.46600841,7.85435539 2.2812101,7.86231722 2.09655172,7.85705329 C1.91364825,7.85334903 1.73110989,7.83911439 1.54984326,7.81442006 L1.54984326,7.81442006 Z" id="Path"></path>
                        <path d="M0.486520376,5.45329154 C0.695186218,5.51443708 0.910173773,5.55146037 1.12727273,5.56363636 C1.34228734,5.57805325 1.55802614,5.57805325 1.77304075,5.56363636 L2.09278997,5.53103448 L2.40877743,5.48213166 L2.09028213,5.50846395 L1.77178683,5.5184953 C1.56207378,5.51856697 1.35260043,5.50432278 1.14482759,5.47586207 C0.941202372,5.45060396 0.741277577,5.40135933 0.549216301,5.32915361 C0.456580607,5.29551609 0.367186293,5.25354693 0.282131661,5.20376176 C0.232653796,5.16878831 0.186859351,5.12887572 0.145454545,5.0846395 C0.12539185,5.14733542 0.106583072,5.21003135 0.0915360502,5.28025078 C0.121380946,5.30257043 0.152812082,5.32268635 0.185579937,5.34043887 C0.282463131,5.38663665 0.383149567,5.42439407 0.486520376,5.45329154 Z" id="Path"></path>
                        <path d="M1.80564263,6.06269592 C1.61371298,6.07397717 1.42117204,6.06894342 1.23009404,6.0476489 C1.04254592,6.02783153 0.856823663,5.99345405 0.67460815,5.94482759 C0.502765199,5.90003561 0.334986691,5.84089369 0.173040752,5.76802508 C0.169315213,5.84028639 0.169315213,5.91269167 0.173040752,5.98495298 C0.320700134,6.0317859 0.471567667,6.06782647 0.624451411,6.09278997 C0.819957194,6.12686273 1.01786597,6.14531185 1.21630094,6.14796238 C1.41461422,6.15423464 1.61309303,6.14290498 1.80940439,6.11410658 C2.00280845,6.0886477 2.19368137,6.04669761 2.3799373,5.98871473 C2.19093059,6.02950313 1.99881593,6.05425152 1.80564263,6.06269592 L1.80564263,6.06269592 Z" id="Path"></path>
                        <path d="M0.304702194,6.37115987 L0.293416928,6.37115987 L0.267084639,6.37115987 C0.278369906,6.42884013 0.290909091,6.48777429 0.305956113,6.54796238 C0.642603273,6.58762289 0.981413395,6.60605014 1.32037618,6.6031348 C1.66909995,6.60492319 2.01666122,6.56279455 2.35485893,6.47774295 C2.01364481,6.5320978 1.66700338,6.54389119 1.32288401,6.51285266 C0.980875156,6.4868281 0.640821562,6.43950537 0.304702194,6.37115987 L0.304702194,6.37115987 Z" id="Path"></path>
                        <path d="M1.37178683,7.00062696 C1.20380092,6.99391887 1.03633735,6.97759117 0.870219436,6.95172414 C0.70738453,6.92829025 0.546461624,6.89308837 0.388714734,6.84639498 L0.377429467,6.84639498 C0.365852946,6.8439594 0.35389627,6.8439594 0.342319749,6.84639498 L0.342319749,6.84639498 L0.405015674,7.02946708 C0.553260392,7.05779549 0.70322601,7.07622702 0.853918495,7.0846395 C1.02514088,7.09465963 1.19680269,7.09465963 1.36802508,7.0846395 C1.5381133,7.07749388 1.70766224,7.06074831 1.87586207,7.03448276 C2.04263323,7.00940439 2.20815047,6.97178683 2.36990596,6.93166144 C2.20387346,6.96013995 2.03645023,6.97981218 1.86833856,6.99059561 C1.70316388,7.00372691 1.53735708,7.00707654 1.37178683,7.00062696 Z" id="Path"></path>
                        <path d="M1.42695925,7.41943574 C1.25527017,7.40356758 1.08451145,7.37887453 0.915360502,7.34545455 C0.752174312,7.31499836 0.592220049,7.26923717 0.437617555,7.20877743 L0.437617555,7.20877743 L0.430094044,7.20877743 C0.418161605,7.20575209 0.405662846,7.20575209 0.393730408,7.20877743 C0.41630094,7.27648903 0.438871473,7.34169279 0.460188088,7.4031348 C0.605617551,7.44290401 0.754085386,7.47058445 0.904075235,7.48589342 C1.08022196,7.50528776 1.25727276,7.5153332 1.43448276,7.51598746 C1.61003135,7.51598746 1.78557994,7.51598746 1.95987461,7.49968652 C2.13416928,7.48338558 2.30846395,7.46833856 2.4815047,7.44576803 C2.30721003,7.45454545 2.13166144,7.45830721 1.95862069,7.45705329 C1.78557994,7.45579937 1.59874608,7.43573668 1.42695925,7.41943574 Z" id="Path"></path>
                        <path d="M0.549216301,4.75987461 C0.65829085,4.81997469 0.774591336,4.86590495 0.895297806,4.89655172 C1.12903984,4.95425452 1.36815656,4.9874535 1.60877743,4.99561129 C1.84576803,5.00438871 2.0815047,4.99561129 2.31598746,4.98808777 C2.08025078,4.98808777 1.84326019,4.97053292 1.61003135,4.94420063 C1.37729277,4.92091872 1.1477489,4.87257156 0.92539185,4.8 C0.709717868,4.72852665 0.496551724,4.60815047 0.415047022,4.4338558 C0.353878174,4.28600488 0.366921293,4.11784181 0.45015674,3.98119122 C0.35920731,4.10548389 0.281066459,4.23865942 0.2169279,4.37868339 C0.229338398,4.41947139 0.246598676,4.45862275 0.268338558,4.49529781 C0.336530905,4.60709311 0.433548284,4.69848002 0.549216301,4.75987461 L0.549216301,4.75987461 Z" id="Path"></path>
                    </g>
                    <path d="M10.1166144,36.4752351 C11.241308,35.9420554 12.3989472,35.4813451 13.5824451,35.0959248 C14.1742947,34.9028213 14.7724138,34.7297806 15.3730408,34.569279 C15.9736677,34.4087774 16.5780564,34.2570533 17.1836991,34.1166144 C18.3955836,33.8257697 19.6230743,33.6043023 20.8601881,33.4532915 C21.1673778,33.4344599 21.4733482,33.3993005 21.7768025,33.3479624 C21.9246216,33.3215655 22.0692164,33.2795321 22.2081505,33.2225705 C22.2716891,33.1967726 22.3296075,33.1588701 22.3786834,33.1109718 C22.4188088,33.0633229 22.4188088,33.0369906 22.3711599,32.9931034 C22.2480642,32.9164988 22.1082265,32.8708902 21.9636364,32.8601881 C21.8113464,32.8424261 21.657904,32.8365567 21.5047022,32.8426332 C21.1950772,32.8560494 20.8869508,32.89336 20.5830721,32.954232 C20.8829441,32.8674694 21.1902157,32.8087016 21.5009404,32.7786834 C21.657613,32.7631941 21.8152733,32.7602589 21.9724138,32.769906 C22.1392461,32.7708964 22.3026626,32.8172773 22.4451411,32.9040752 C22.4893706,32.9364598 22.5187374,32.9852539 22.5266458,33.0394984 C22.5304766,33.0947561 22.511435,33.1491606 22.4739812,33.1899687 C22.414964,33.2539657 22.3437735,33.3055468 22.2645768,33.3416928 C22.1187493,33.4090943 21.9661671,33.4607957 21.8094044,33.4959248 C21.5024689,33.5595887 21.1922907,33.6064712 20.8802508,33.6363636 C20.2683386,33.7115987 19.6589342,33.8244514 19.0507837,33.9410658 C18.4426332,34.0576803 17.8369906,34.1918495 17.231348,34.3285266 C16.0238245,34.6056426 14.8188088,34.9040752 13.6263323,35.2401254 C12.4388715,35.5924765 11.2702194,36.0125392 10.1166144,36.4752351 Z" id="Path" fill="#000000"></path>
                    <path d="M19.5598746,32.600627 C18.9329154,32.7134796 18.3147335,32.8351097 17.6965517,32.9768025 C17.0783699,33.1184953 16.4601881,33.2489028 15.8470219,33.4043887 C15.2338558,33.5598746 14.6219436,33.7191223 14.015047,33.8959248 C13.7103448,33.9799373 13.4094044,34.076489 13.10721,34.1667712 C12.8050157,34.2570533 12.5090909,34.3648903 12.2131661,34.4727273 C11.0269592,34.9053292 9.87836991,35.4369906 8.71974922,35.9510972 C8.42758621,36.076489 8.13918495,36.2018809 7.83197492,36.3109718 C7.75082052,36.3393344 7.66667287,36.3582677 7.58119122,36.3673981 C7.55145582,36.3703465 7.52143939,36.3664873 7.49341693,36.3561129 C7.47031074,36.3466899 7.45093047,36.3299524 7.43824451,36.3084639 C7.42687315,36.288292 7.42246616,36.2649349 7.42570533,36.2420063 C7.43418192,36.1920203 7.45437794,36.144753 7.4846395,36.1040752 C7.5786925,35.9705116 7.6876494,35.8480929 7.80940439,35.739185 C8.05173771,35.5269622 8.3243186,35.3520033 8.61818182,35.2200627 C8.90665669,35.0850426 9.20954012,34.9832401 9.52100313,34.9166144 C8.91431126,35.0860976 8.35593766,35.3957802 7.89090909,35.8206897 C7.0645768,36.5981191 8.19059561,36 8.65203762,35.7981191 C9.79561129,35.2551724 10.9467085,34.7122257 12.1404389,34.2708464 C12.7373041,34.0438871 13.3504702,33.8670846 13.9598746,33.6940439 C14.569279,33.5210031 15.1887147,33.3705329 15.8094044,33.2326019 C16.430094,33.0946708 17.0520376,32.9818182 17.6777429,32.8664577 C18.3034483,32.7510972 18.9291536,32.6633229 19.5598746,32.600627 Z" id="Path" fill="#000000"></path>
                    <path d="M8.01755486,28.6294671 C8.73921712,28.3029645 9.48397439,28.0301243 10.245768,27.8131661 C11.0039707,27.5857889 11.769697,27.3855799 12.5429467,27.2125392 C14.0890282,26.8689655 15.6426332,26.5642633 17.2087774,26.3272727 C17.9924765,26.2018809 18.7774295,26.0990596 19.5673981,26.0275862 C20.3573668,25.9561129 21.1485893,25.9021944 21.9498433,25.9021944 C22.3485893,25.9021944 22.7398119,25.9322884 23.1335423,25.9222571 C23.5247945,25.9208233 23.9151095,25.8838902 24.2996865,25.8119122 C24.4875262,25.7825853 24.6675085,25.715625 24.8288401,25.615047 C24.8611459,25.5942141 24.8844244,25.5619823 24.8940439,25.5247649 C24.8944823,25.4878585 24.8766449,25.4531224 24.846395,25.4319749 C24.7719527,25.3739451 24.6867006,25.331319 24.5956113,25.3065831 C24.4063192,25.2559321 24.212067,25.2260795 24.0163009,25.2175549 C23.8191619,25.206888 23.6215904,25.206888 23.4244514,25.2175549 C23.8197665,25.1642656 24.221054,25.1744248 24.6131661,25.2476489 C24.7156325,25.2695105 24.8125151,25.31219 24.8978056,25.3730408 C24.9502492,25.4095525 24.9812339,25.4696441 24.9805749,25.5335423 C24.9716229,25.5947201 24.9392488,25.650026 24.8902821,25.6877743 C24.7220664,25.8069997 24.5299732,25.8882863 24.3272727,25.9260188 C23.5435737,26.1053292 22.7347962,26.0865204 21.9448276,26.0877743 C20.3711599,26.1053292 18.8025078,26.3159875 17.2388715,26.5266458 C15.6777429,26.7598746 14.1141066,27.000627 12.569279,27.3291536 C11.7968652,27.4934169 11.0257053,27.6689655 10.2645768,27.8783699 C9.88840125,27.9836991 9.50470219,28.0940439 9.12852665,28.2169279 C8.75127683,28.3350165 8.38044837,28.4727169 8.01755486,28.6294671 L8.01755486,28.6294671 Z" id="Path" fill="#000000"></path>
                    <path d="M22.2231975,24.4025078 C21.4708464,24.4952978 20.7084639,24.5830721 19.9523511,24.6846395 C19.1962382,24.7862069 18.4401254,24.8789969 17.6852665,24.9880878 C16.9304075,25.0971787 16.1805643,25.2050157 15.4282132,25.3304075 C14.6758621,25.4557994 13.923511,25.5811912 13.1836991,25.737931 C11.6986472,26.0740937 10.2334728,26.4927149 8.79498433,26.9918495 L7.71034483,27.3479624 C7.52852665,27.4081505 7.34796238,27.4670846 7.16363636,27.5222571 C6.97798118,27.5849685 6.78702157,27.6307148 6.59310345,27.6589342 C6.56245067,27.6615752 6.53157383,27.6594603 6.5015674,27.6526646 C6.47499091,27.6476408 6.45102458,27.6334385 6.4338558,27.6125392 C6.41519542,27.5868892 6.40877423,27.5543246 6.41630094,27.523511 C6.42544517,27.4922016 6.44032673,27.4628637 6.46018809,27.4369906 C6.47606392,27.4162805 6.49323516,27.3965964 6.51159875,27.3780564 C6.57743918,27.3059458 6.64780073,27.2380972 6.72225705,27.1749216 C6.86850006,27.0464382 7.02975621,26.9361272 7.20250784,26.846395 C7.54202458,26.6639245 7.91467359,26.5513623 8.2984326,26.5153605 C7.92487911,26.5832397 7.56725429,26.7201662 7.24388715,26.9191223 C7.08468814,27.0173864 6.93595247,27.1316692 6.8,27.2601881 C6.73214637,27.3240588 6.66768999,27.391445 6.60689655,27.462069 C6.58047421,27.4879254 6.55919913,27.5185615 6.54420063,27.5523511 C6.54519128,27.5446809 6.54291662,27.536947 6.53793103,27.5310345 C6.52915361,27.5222571 6.52789969,27.5247649 6.53793103,27.5247649 C6.55454983,27.5273524 6.57146898,27.5273524 6.58808777,27.5247649 C6.7707682,27.4932672 6.95034451,27.4458557 7.12476489,27.3830721 C7.30532915,27.3241379 7.4846395,27.2576803 7.66394984,27.1974922 L8.74106583,26.8125392 C10.1804543,26.2940775 11.6503011,25.86443 13.1423197,25.5260188 C14.6470219,25.2175549 16.1517241,25.0018809 17.6714734,24.8200627 C18.4238245,24.7297806 19.1887147,24.6507837 19.9485893,24.5768025 C20.7084639,24.5028213 21.460815,24.4451411 22.2231975,24.4025078 Z" id="Path" fill="#000000"></path>
                    <path d="M24.8200627,38.7272727 C24.8003835,39.4572003 24.6779685,40.1807156 24.4564263,40.876489 C24.4238245,40.9805643 24.3899687,41.0871473 24.353605,41.1949843 L24.30721,41.3266458 C24.2858934,41.384326 24.2658307,41.4407524 24.2445141,41.4959248 C23.9586207,42.2482759 23.6990596,42.7899687 23.3442006,43.2514107 L21.569906,42.7661442 L19.4633229,41.9285266 L21.045768,37.5398119 L23.1611285,38.230721 L23.1749216,38.230721 L24.8200627,38.7272727 Z" id="Path" fill="#000000"></path>
                    <path d="M23.384326,43.3617555 L21.5485893,42.8601881 L19.3479624,41.9824451 L20.9918495,37.4169279 L23.2037618,38.139185 L24.9178683,38.6545455 L24.9178683,38.7247649 C24.8984396,39.4640386 24.7747533,40.1968688 24.5504702,40.9015674 C24.5166144,41.0068966 24.4827586,41.1134796 24.446395,41.2225705 L24.3799373,41.4094044 C24.3648903,41.4495298 24.3510972,41.4884013 24.3360502,41.5272727 C24.0200627,42.3586207 23.7554859,42.8739812 23.4231975,43.3090909 L23.384326,43.3617555 Z M19.5862069,41.877116 L21.6087774,42.6808777 L23.3115987,43.1473354 C23.615047,42.7373041 23.8633229,42.2432602 24.1605016,41.462069 C24.1755486,41.4244514 24.1893417,41.3868339 24.2031348,41.3479624 L24.2683386,41.1636364 C24.3047022,41.0583072 24.338558,40.9517241 24.369906,40.8489028 C24.5812427,40.1843138 24.7022848,39.494332 24.7297806,38.7974922 L23.1335423,38.3184953 L21.1009404,37.6539185 L19.5862069,41.877116 Z" id="Shape" fill="#FFFFFF"></path>
                    <path d="M24.8075235,38.7398119 L24.7874608,38.7937304 L23.1573668,38.2244514 L23.1711599,38.1818182 C23.1959938,38.1070085 23.2497648,38.0452671 23.3204545,38.0103935 C23.3911443,37.9755199 23.4728592,37.9704216 23.5473354,37.9962382 L24.6181818,38.3611285 C24.6938637,38.3857334 24.7565151,38.4396647 24.7921048,38.5108442 C24.8276945,38.5820236 24.8332487,38.6645035 24.8075235,38.7398119 L24.8075235,38.7398119 Z" id="Path" fill="#000000"></path>
                    <path d="M24.962901,39.8895065 L23.0445141,38.6641943 L23.0886611,38.4191319 C23.1233083,38.2230369 23.1994519,38.0606004 23.3000315,37.968217 C23.3996184,37.8780072 23.5148,37.8647649 23.6197626,37.9314577 L24.7608951,38.6445893 C24.8667922,38.7102233 24.9538898,38.8509334 25.002675,39.0351953 C25.0514601,39.2194572 25.0578546,39.4318678 25.0204259,39.6248391 L24.962901,39.8895065 Z M23.3013693,38.4338357 L24.8398246,39.4140854 C24.8487939,39.3308636 24.842196,39.2445331 24.8210956,39.169023 C24.7960536,39.0741301 24.751211,39.0017013 24.6966814,38.9680718 L23.554211,38.2549401 C23.5001539,38.2206797 23.4408423,38.2277464 23.3896632,38.2745451 C23.3520561,38.3099135 23.3212486,38.3654931 23.3013693,38.4338357 Z" id="Shape" fill="#FFFFFF"></path>
                    <polygon id="Path" fill="#000000" points="20.9667712 37.5097179 19.4106583 42.0112853 18.9128527 41.3667712 20.2583072 37.5937304"></polygon>
                    <path d="M19.4106583,42.1053426 C19.3815805,42.105831 19.3540413,42.0922949 19.3366771,42.0689655 L18.8351097,41.4257053 C18.8154618,41.4004391 18.8098097,41.3669971 18.8200627,41.3366771 L20.1655172,37.5623824 C20.1766898,37.5286264 20.2066353,37.5045718 20.2420063,37.5009404 L20.9517241,37.4169279 C20.9839048,37.4133904 21.0156425,37.4266539 21.0357367,37.4520376 C21.055815,37.4770755 21.061942,37.5105381 21.0520376,37.5410658 L19.4971787,42.0426332 C19.4858834,42.0752922 19.4573751,42.0989685 19.4231975,42.1040752 L19.4106583,42.1053426 Z M19.0194357,41.3529781 L19.3780564,41.8181818 L20.830094,37.6238245 L20.3285266,37.6827586 L19.0194357,41.3529781 Z" id="Shape" fill="#FFFFFF"></path>
                    <path d="M20.154232,38.8338558 C20.3021944,38.8852665 20.2658307,39.2589342 20.1128527,39.6965517 C19.9598746,40.1341693 19.7467085,40.4702194 19.5987461,40.4175549 C19.4507837,40.3648903 19.538558,39.9047022 19.69279,39.4670846 C19.8470219,39.0294671 20.0050157,38.7811912 20.154232,38.8338558 Z" id="Path" fill="#FFFFFF"></path>
                    <path d="M19.5435737,39.5097179 L24.1830721,41.1398119 L24.0652038,41.4319749 C24.0652038,41.4407524 23.9874608,41.6326019 23.9811912,41.6401254 C23.7040752,42.3222571 23.4796238,42.815047 23.1122257,43.3090909 L21.5711599,42.7636364 L19.4119122,42.0112853 L18.8789969,41.4094044 L19.5435737,39.5097179 Z" id="Path" fill="#FFFFFF"></path>
                    <path d="M23.1109718,43.4081505 C23.1002519,43.4077716 23.0896648,43.4056542 23.0796238,43.4018809 L19.3793103,42.1003135 C19.3640829,42.0954726 19.3505823,42.0863271 19.3404389,42.0739812 L18.8075235,41.4721003 C18.7847873,41.4464211 18.7776041,41.410505 18.7887147,41.3780564 L19.4545455,39.4783699 C19.4629345,39.455262 19.4800385,39.4363576 19.5021944,39.4257053 C19.5253965,39.4156615 19.5517195,39.4156615 19.5749216,39.4257053 L24.2144201,41.0557994 C24.2387893,41.0639532 24.2584466,41.0822392 24.2683386,41.1059561 C24.2784457,41.1295809 24.2784457,41.1563125 24.2683386,41.1799373 L24.1492163,41.4708464 L24.1492163,41.4708464 C24.1492163,41.4708464 24.09279,41.6225705 24.0652038,41.6802508 L24.0652038,41.6802508 C23.8043887,42.3159875 23.5749216,42.8451411 23.1874608,43.3680251 C23.1699779,43.3930102 23.1414657,43.4079675 23.1109718,43.4081505 L23.1109718,43.4081505 Z M19.4645768,41.9310345 L23.077116,43.1962382 C23.3981191,42.753605 23.6075235,42.3059561 23.8934169,41.6050157 L23.8934169,41.5962382 C23.9047022,41.5724138 23.9648903,41.4181818 23.9711599,41.400627 L24.0539185,41.1962382 L19.5974922,39.6250784 L18.9805643,41.3805643 L19.4645768,41.9310345 Z" id="Shape" fill="#000000"></path>
                    <polygon id="Rectangle" fill="#FFFFFF" transform="translate(19.992198, 39.649053) rotate(-70.550000) translate(-19.992198, -39.649053) " points="19.8668062 39.2772666 20.1175899 39.2772666 20.1175899 40.0208403 19.8668062 40.0208403"></polygon>
                    <path d="M21.6902821,42.7009404 L21.7115987,42.6257053 L23.354232,43.2062696 L23.3304075,43.2727273 C23.2576842,43.4133149 23.0975258,43.4850742 22.9442006,43.445768 L21.8796238,43.0796238 C21.8035259,43.0556117 21.7404199,43.0017638 21.7047338,42.9303917 C21.6690477,42.8590196 21.6638331,42.7762261 21.6902821,42.7009404 Z" id="Path" fill="#000000"></path>
                    <path d="M23.115181,44.5040324 C23.0702297,44.5049203 23.0255219,44.492008 22.9829682,44.465847 L21.8551932,43.7689646 C21.7507779,43.7068594 21.6648603,43.5707244 21.6172101,43.3918844 C21.5692696,43.2155702 21.5621349,43.0120818 21.5973782,42.826264 L21.6476191,42.5040752 L23.5752815,43.7307792 L23.5038866,44.0672875 C23.4223861,44.3200919 23.2768244,44.4836432 23.115181,44.5040324 Z M21.7851204,42.9670725 C21.7556727,43.160006 21.8131926,43.3614357 21.9173332,43.4300697 L23.0464304,44.1269521 C23.1476206,44.1753289 23.2545281,44.1000669 23.3108559,43.9407986 L21.7851204,42.9670725 Z" id="Shape" fill="#FFFFFF"></path>
                    <polygon id="Rectangle" fill="#FFFFFF" transform="translate(23.028994, 43.041183) rotate(-69.100000) translate(-23.028994, -43.041183) " points="22.9036021 42.6806813 23.1543858 42.6806813 23.1543858 43.4016845 22.9036021 43.4016845"></polygon>
                    <path d="M21.1774295,37.7805643 L22.8388715,38.3636364 L22.5354232,39.230094 C22.5354232,39.230094 22.8225705,38.5028213 21.1774295,37.7805643 Z" id="Path" fill="#FFFFFF"></path>
                    <path d="M23.2789969,38.5266458 L24.5329154,38.9554859 C24.5329154,38.9554859 24.4890282,40.0012539 24.3297806,40.4326019 C24.4199837,39.6385684 23.9985896,38.874226 23.2789969,38.5266458 Z" id="Path" fill="#FFFFFF"></path>
                    <path d="M24.1015674,39.2890282 C24.1015674,39.2890282 23.6752351,38.6018809 22.784953,39.9084639 L23.2865204,38.5166144 L23.9485893,38.7774295 L24.1015674,39.2890282 Z" id="Path" fill="#FFFFFF"></path>
                    <g id="Path_12939" transform="translate(20.188088, 40.000000)" fill="#000000">
                        <path d="M1.95066667,1.50285714 L0.268,0.257142857 L0.0413333333,0.862857143 C0.0413333333,0.862857143 0.189333333,1.75428571 1.12266667,1.78285714 C1.12266667,1.78285714 0.145333333,1.31142857 0.206666667,0.785714286 L0.302666667,0.5 L1.95066667,1.50285714 Z" id="Path"></path>
                    </g>
                    <g id="Path_12948" transform="translate(20.188088, 40.250784)" fill="#000000">
                        <path d="M0.33,0.323333333 C0.33,0.323333333 -0.2,1.46666667 1.23,1.85333333 C1.23,1.85333333 -0.12,0.993333333 1.14,0.493333333 L0.33,0.323333333 Z" id="Path"></path>
                    </g>
                    <path d="M23.8721003,39.2 C24.3222571,39.3579937 24.4326019,40.2131661 24.122884,41.1109718 C23.8131661,42.0087774 23.1874608,42.615674 22.7373041,42.4514107 C22.2871473,42.2871473 22.1529781,41.4545455 22.4677116,40.5567398 C22.7824451,39.6589342 23.4219436,39.0420063 23.8721003,39.2 Z" id="Path" fill="#000000"></path>
                    <path d="M24.4100313,41.0407524 L24.2946708,41.3705329 C24.2503322,41.4952062 24.1136876,41.5607284 23.9887147,41.5172414 L22.4677116,40.9805643 C22.4023127,40.9595685 22.3483875,40.9126678 22.3185261,40.850812 C22.2886647,40.7889563 22.2854809,40.7175598 22.3097179,40.6532915 L22.4175549,40.3510972 C22.4388646,40.2865401 22.4854705,40.2334006 22.5466961,40.2038515 C22.6079217,40.1743025 22.6785204,40.1708761 22.7423197,40.1943574 L24.262069,40.7360502 C24.3865822,40.7798794 24.4525832,40.9157968 24.4100313,41.0407524 Z" id="Path" fill="#000000"></path>
                    <path d="M24.0677116,42.0818691 C24.0301432,42.0817047 23.9928558,42.0734676 23.9573668,42.0574929 L22.4363636,41.3554588 C22.3482573,41.3157583 22.276033,41.2321008 22.2357367,41.1230725 C22.1944049,41.0139738 22.189419,40.8876764 22.2219436,40.7736805 L22.3285266,40.3836615 C22.3929617,40.1485052 22.5919088,40.0250347 22.7736677,40.1073981 L24.2946708,40.8078071 C24.4679839,40.8874716 24.55885,41.1339005 24.4978056,41.3587089 L24.4978056,41.3587089 L24.3824451,41.7861047 C24.3372942,41.9619306 24.2106937,42.0809009 24.0677116,42.0818691 L24.0677116,42.0818691 Z M22.6583072,40.3316512 C22.5897028,40.3318831 22.528549,40.3877516 22.5053292,40.4714158 L22.3987461,40.8630598 C22.3843217,40.9156347 22.3866655,40.9734931 22.4052586,41.0238215 C22.4238516,41.0741498 22.4571595,41.1127948 22.4978056,41.1311979 L24.0200627,41.8267317 C24.056477,41.8433571 24.0964975,41.8405383 24.131307,41.8188962 C24.1661165,41.797254 24.192859,41.7585643 24.2056426,41.7113511 L24.3210031,41.2855804 C24.3470641,41.1869219 24.3075151,41.0793575 24.2319749,41.0434436 L22.7109718,40.3430346 C22.6940607,40.3353037 22.6762388,40.3314542 22.6583072,40.3316512 Z" id="Shape" fill="#FFFFFF"></path>
                    <path d="M3.48087774,30.9266458 C2.66691098,30.9451871 1.87628814,30.6538578 1.26896552,30.1115987 C0.747228275,29.6379401 0.441882352,28.9715249 0.423824451,28.2670846 C0.412562124,28.0268114 0.387863115,27.7873566 0.34984326,27.5498433 C0.287147335,27.0946708 0.224451411,26.6257053 0.322257053,26.1529781 C0.453918495,25.5260188 0.914106583,25.1498433 1.69153605,25.0244514 C3.28902821,24.7636364 6.08025078,25.7216301 6.18557994,25.8946708 C6.19508883,25.9102384 6.20068219,25.927879 6.20188088,25.9460815 C6.71598746,25.8018809 7.1799373,25.6539185 7.52100313,25.5410658 C12.1605016,24.0050157 16.8163009,23.4432602 19.3166144,23.1410658 C22.6746082,22.7360502 24.4664577,22.7097179 26.6884013,23.030721 C28.8915361,23.3492163 29.9912226,23.9084639 30.1504702,24.8025078 C30.2322528,25.1969647 30.2115303,25.6058027 30.0902821,25.9899687 C30.0347538,26.1879126 29.9928583,26.3894298 29.9648903,26.5931034 C29.9473354,26.7184953 29.9373041,26.8564263 29.9247649,27.0043887 C29.8683386,27.7404389 29.7918495,28.7498433 28.7310345,28.7724138 C26.8401254,28.8100313 24.5855799,27.8382445 24.5630094,27.8282132 C24.5037176,27.8000412 24.476189,27.7309079 24.4998863,27.66969 C24.5235835,27.6084722 24.5904848,27.5758924 24.6532915,27.5949843 L25.6288401,27.9134796 C27.2789969,28.2507837 28.2244514,28.3097179 28.4388715,28.0890282 C28.4766787,28.0485706 28.487454,27.9897962 28.4664577,27.938558 C28.4664577,27.9097179 28.4288401,27.8507837 28.2946708,27.7742947 C26.7661442,26.8965517 17.4583072,26.9768025 10.6959248,29.1122257 C9.97492163,29.339185 9.33040752,29.5623824 8.76238245,29.7605016 C7.05329154,30.3523511 5.70407524,30.8188088 3.68777429,30.9241379 C3.61880878,30.9241379 3.54984326,30.9266458 3.48087774,30.9266458 Z M2.30721003,25.2263323 C1.92931186,25.2130467 1.55286701,25.2797044 1.20250784,25.4219436 C0.872703198,25.5595274 0.63392845,25.853404 0.56677116,26.2043887 C0.476489028,26.6344828 0.537931034,27.0821317 0.598119122,27.5147335 C0.637865075,27.7617596 0.663403394,28.0108629 0.67460815,28.260815 C0.691363348,28.8974322 0.96771247,29.4995109 1.43949843,29.9272727 C2.00501567,30.4526646 2.79874608,30.7147335 3.67523511,30.6708464 C5.65517241,30.5667712 6.92413793,30.1278997 8.67962382,29.5197492 C9.25015674,29.3216301 9.89592476,29.0984326 10.6206897,28.8689655 C17.568652,26.6746082 26.8188088,26.6407524 28.4188088,27.5523511 C28.5575401,27.6153344 28.6635155,27.7335901 28.7109718,27.8783699 C28.749191,28.0113396 28.7138529,28.154602 28.6181818,28.2545455 C28.4840125,28.3924765 28.2219436,28.4601881 27.7943574,28.4576803 C28.1027465,28.4984957 28.4137254,28.5165174 28.7247649,28.5115987 C29.4996865,28.4952978 29.6025078,27.8645768 29.6752351,26.9742947 C29.6865204,26.8238245 29.6978056,26.6808777 29.7153605,26.5492163 C29.7439964,26.3378118 29.785876,26.1284135 29.8407524,25.9222571 C29.9544908,25.5732676 29.9743837,25.2004914 29.8984326,24.8413793 L29.8984326,24.8413793 C29.7617555,24.0890282 28.6984326,23.569906 26.6470219,23.2739812 C24.4489028,22.9554859 22.6733542,22.9830721 19.3404389,23.3855799 C16.8489028,23.6865204 12.2094044,24.245768 7.59373041,25.7742947 C4.6031348,26.769906 2.69467085,27.0081505 2.0677116,26.4689655 C1.93769588,26.3655004 1.86459522,26.2063994 1.87078168,26.0403547 C1.87696815,25.87431 1.96170522,25.7210897 2.09905956,25.6275862 C2.40501567,25.400627 2.99811912,25.3278997 3.85454545,25.4106583 C3.3461812,25.2979063 2.82783531,25.2361585 2.30721003,25.2263323 L2.30721003,25.2263323 Z M3.2338558,25.630094 C2.62570533,25.630094 2.36238245,25.7479624 2.25203762,25.8294671 C2.17985924,25.8752969 2.13341932,25.9523872 2.12664577,26.0376176 C2.12734249,26.0434484 2.12734249,26.0493415 2.12664577,26.0551724 C2.12729227,26.1485314 2.17428472,26.2354675 2.25203762,26.2871473 C2.78746082,26.7297806 4.45768025,26.4125392 5.87962382,26.0363636 C4.6169279,25.7266458 3.78432602,25.630094 3.2338558,25.630094 L3.2338558,25.630094 Z" id="Shape" fill="#000000"></path>
                    <path d="M5.35799373,39.322884 C5.06271365,39.3265136 4.76893678,39.2803063 4.48902821,39.1862069 C3.40438871,38.8100313 3.38934169,38.0777429 3.37680251,37.430721 C3.37763784,37.2512285 3.36590592,37.0718977 3.34169279,36.8940439 C3.33291536,36.8326019 3.32163009,36.768652 3.31159875,36.7034483 C3.21003135,36.0940439 3.08589342,35.3354232 3.34545455,34.7648903 C3.95987461,33.4119122 6.61818182,33.8645768 7.49968652,34.1304075 C7.61504702,34.1642633 7.71912226,34.1956113 7.75047022,34.2633229 C8.0815047,34.1567398 8.45141066,34.0338558 8.86269592,33.8871473 L9.39811912,33.7015674 C11.0583072,33.1272727 12.6257053,32.5855799 14.5128527,32.0501567 C17.5222571,31.1974922 21.9109718,30.2282132 24.3510972,30.3047022 C25.5322884,30.3410658 26.9605016,30.630721 27.0583072,31.8031348 C27.0914867,32.1886826 27.0418945,32.5768693 26.9128527,32.9416928 C26.8589342,33.1297806 26.7974922,33.3416928 26.7335423,33.630094 C26.6939941,33.8244489 26.6646955,34.0207493 26.645768,34.2181818 C26.584326,34.769906 26.5203762,35.29279 25.9460815,35.69279 C25.0896552,36.2871473 22.9617555,34.9855799 22.7222571,34.8351097 C22.7135126,34.8294383 22.7055094,34.8226987 22.6984326,34.815047 C19.7680251,35.0068966 14.8413793,36.0363636 11.1736677,37.4858934 L10.7498433,37.6539185 C8.13291536,38.6934169 6.54294671,39.322884 5.35799373,39.322884 Z M5.44827586,34.0902821 C5.08223513,34.0828919 4.71724145,34.1319525 4.3661442,34.2357367 C3.97241379,34.3611285 3.70532915,34.5755486 3.57366771,34.8626959 C3.34545455,35.3642633 3.46332288,36.0802508 3.55862069,36.6570533 C3.56990596,36.7222571 3.5799373,36.7824451 3.58996865,36.8476489 C3.6150221,37.0372145 3.62758838,37.2282218 3.62758621,37.4194357 C3.64012539,38.0689655 3.65141066,38.6294671 4.57053292,38.9454545 C5.76677116,39.3567398 7.40188088,38.7097179 10.662069,37.4194357 L11.0858934,37.2514107 C15.7893417,35.3918495 23.4996865,34.0025078 25.0670846,34.7335423 C25.2058274,34.7859518 25.3166161,34.8935621 25.3730408,35.030721 C25.3959302,35.1062848 25.372372,35.1882479 25.3128527,35.2401254 C25.1761755,35.3655172 24.8112853,35.4244514 24.1918495,35.3003135 C24.8188088,35.5510972 25.477116,35.7141066 25.8068966,35.4858934 C26.292163,35.1498433 26.3398119,34.7260188 26.4012539,34.1880878 C26.4200462,33.9821205 26.4506082,33.7773972 26.49279,33.5749216 C26.5579937,33.2789969 26.6181818,33.062069 26.6746082,32.8714734 C26.7953442,32.535576 26.842386,32.1776308 26.8125392,31.8219436 L26.8125392,31.8219436 C26.7673981,31.2777429 26.3021944,30.6144201 24.3460815,30.554232 C21.9310345,30.4777429 17.5749216,31.4420063 14.584326,32.2909091 C12.7034483,32.8225705 11.1410658,33.3642633 9.4846395,33.9373041 L8.94796238,34.122884 C5.01442006,35.4808777 4.77742947,35.1373041 4.6846395,35.0081505 C4.62398638,34.9109747 4.63688837,34.7850512 4.71598746,34.7021944 C4.94169279,34.3673981 5.50595611,34.1868339 6.42507837,34.1605016 C6.10311634,34.1150873 5.77843795,34.0916267 5.45329154,34.0902821 L5.44827586,34.0902821 Z M23.2978056,34.7949843 C24.4714734,35.2112853 24.9905956,35.1460815 25.1159875,35.0846395 C25.0744564,35.0342635 25.0210143,34.9950439 24.9605016,34.9705329 C24.6570533,34.8225705 24.0752351,34.768652 23.2978056,34.7949843 Z M4.90658307,34.8815047 C4.98181818,34.9178683 5.37304075,34.9905956 7.22131661,34.4326019 C5.62382445,34.353605 5.08965517,34.6169279 4.91786834,34.8626959 L4.90658307,34.8815047 Z" id="Shape" fill="#000000"></path>
                </g>
                <g id="UL_WORDMARK" transform="translate(31.347962, 62.695925)">
                    <path d="M8.71347962,1.61251031 C9.94503443,1.60900807 11.1558584,1.92944397 12.2244514,2.54169279 C12.3573668,2.6169279 12.4877743,2.6984326 12.6144201,2.78244514 C15.2460785,4.51920305 16.4113476,7.78746884 15.4720786,10.797407 C14.5328096,13.8073452 11.7155877,15.8328511 8.56323841,15.7646752 C5.41088909,15.6964993 2.68387169,13.551088 1.87561202,10.503356 C1.06735234,7.45562399 2.37283153,4.24079311 5.07711599,2.61943574 C5.17366771,2.55924765 5.27398119,2.50282132 5.37304075,2.45015674 C6.40037633,1.8996697 7.54795228,1.61191417 8.71347962,1.61251031 M8.71347962,0.107836991 C7.29847243,0.108351515 5.9053469,0.4571712 4.65705329,1.12351097 C4.52037618,1.19749216 4.39874608,1.26645768 4.28087774,1.33667712 C1.00554053,3.30776102 -0.571480725,7.20736128 0.412959197,10.9011241 C1.39739912,14.5948869 4.70599324,17.1924017 8.52786096,17.2719803 C12.3497287,17.3515589 15.7635788,14.8940183 16.9009212,11.2444351 C18.0382637,7.59485185 16.6249332,3.63298673 13.4344828,1.52727273 C13.2664577,1.41567398 13.1109718,1.32037618 12.9579937,1.23260188 C11.6639395,0.492757249 10.1990834,0.103742654 8.70846395,0.104075022 L8.71347962,0.107836991 Z" id="Shape" fill="#000000"></path>
                    <path d="M8.71347962,1.35423197 C4.71097179,1.35423197 1.42445141,4.59937304 1.369279,8.5153605 C1.31034483,12.6683386 4.61442006,16.0112853 8.64200627,16.0263839 C12.7084639,16.0413793 16.0539185,12.7661442 16.0564278,8.79122257 C16.0589342,4.630721 12.830094,1.35924765 8.71347962,1.35423197 Z" id="Path" fill="#FFFFFF"></path>
                    <path d="M2.47899687,8.68840125 C2.48052196,6.1621618 4.004001,3.88570865 6.33876743,2.92095281 C8.67353385,1.95619698 11.359578,2.49322042 13.1439245,4.28151454 C14.9282709,6.06980865 15.459357,8.75703303 14.4894438,11.0896617 C13.5195307,13.4222904 11.2397163,14.9407349 8.71347962,14.9366852 C5.26947243,14.9256314 2.48243146,12.1324244 2.47899687,8.68840125 Z M7.369279,4.60188088 L7.369279,7.19247649 C7.369279,7.83322884 7.369279,8.47272727 7.369279,9.11347962 C7.369279,9.48965517 7.1862069,9.67272727 6.8677116,9.67398119 C6.5492163,9.67523511 6.39247649,9.50595611 6.39122257,9.10595611 C6.39122257,7.73416928 6.39122257,6.36238245 6.39122257,4.99059561 L6.39122257,4.61442006 L5.06206897,4.61442006 C5.04390409,4.64826965 5.03080728,4.68460273 5.02319749,4.72225705 C5.02319749,6.25454545 5.00815047,7.78683386 5.03824451,9.31786834 C5.05203762,9.98996865 5.48213166,10.4639498 6.13918495,10.6432602 C6.64851103,10.7853356 7.18805979,10.7770616 7.69278997,10.6194357 C8.31974922,10.4275862 8.69592476,9.98369906 8.7184953,9.3492163 C8.76363636,7.84451411 8.75109718,6.3322884 8.74984326,4.82382445 C8.74984326,4.74858934 8.63824451,4.61191223 8.57429467,4.60815047 C8.18683386,4.59184953 7.79937304,4.60188088 7.37178683,4.60188088 L7.369279,4.60188088 Z M12.4351097,11.5749216 L10.7197492,11.5749216 L10.7197492,6.80125392 L9.37554859,6.80125392 L9.37554859,12.7322884 L12.4376176,12.7322884 L12.4351097,11.5749216 Z" id="Shape" fill="#C02032"></path>
                    <path d="M7.37178683,4.60188088 C7.79937304,4.60188088 8.18683386,4.59184953 8.57178683,4.61191223 C8.63573668,4.61191223 8.74733542,4.7523511 8.74733542,4.82758621 C8.74733542,6.3322884 8.76112853,7.84451411 8.71598746,9.35297806 C8.69592476,9.98746082 8.3184953,10.431348 7.69028213,10.6231975 C7.18555196,10.7808234 6.64600319,10.7890973 6.13667712,10.6470219 C5.47962382,10.4677116 5.04952978,9.99373041 5.03573668,9.32163009 C5.00564263,7.79059561 5.02194357,6.25830721 5.02068966,4.72601881 C5.02829945,4.68836449 5.04139626,4.6520314 5.05956113,4.61818182 L6.38871473,4.61818182 L6.38871473,4.99435737 C6.38871473,6.3661442 6.38871473,7.73793103 6.38871473,9.10971787 C6.38871473,9.50971787 6.5354232,9.67774295 6.86520376,9.67774295 C7.19498433,9.67774295 7.36677116,9.49090909 7.36677116,9.11724138 C7.37680251,8.47648903 7.36677116,7.8369906 7.36677116,7.19623824 L7.37178683,4.60188088 Z" id="Path" fill="#FFFFFF"></path>
                    <polygon id="Path" fill="#FFFFFF" points="12.4376176 11.5749216 12.4376176 12.7322884 9.37554859 12.7322884 9.37554859 6.80125392 10.7197492 6.80125392 10.7197492 11.5749216"></polygon>
                </g>
            </g>
        </g>
    </g>
</svg>